{"glyphs":{"0":{"ha":583,"x_min":28,"x_max":556,"o":"m 292 986 q 441 946 388 986 q 519 837 494 906 q 550 677 544 768 q 556 486 556 586 q 550 295 556 386 q 519 135 544 204 q 441 26 494 67 q 292 -14 388 -14 q 142 26 196 -14 q 64 135 89 67 q 33 295 39 204 q 28 486 28 386 q 33 677 28 586 q 63 837 38 768 q 142 946 89 906 q 292 986 196 986 m 174 486 q 176 361 174 426 q 190 242 178 296 q 225 153 201 188 q 292 118 249 118 q 358 153 335 118 q 394 242 382 188 q 408 361 406 296 q 410 486 410 426 q 408 612 410 547 q 394 731 406 676 q 358 819 382 785 q 292 854 335 854 q 225 819 249 854 q 190 731 201 785 q 176 612 178 676 q 174 486 174 547 z "},"1":{"ha":294,"x_min":49,"x_max":244,"o":"m 244 967 l 244 0 l 99 0 l 99 806 l 49 804 l 49 936 l 244 967 z "},"2":{"ha":586,"x_min":49,"x_max":558,"o":"m 558 725 q 533 594 558 653 q 469 486 507 535 q 386 399 431 438 q 303 326 342 360 q 224 238 251 282 q 196 132 196 194 l 519 132 l 519 0 l 50 0 l 50 132 q 66 259 50 207 q 107 348 82 311 q 165 413 132 385 q 231 467 197 440 q 298 527 265 494 q 356 594 331 560 q 397 662 382 628 q 413 725 413 696 q 408 759 413 738 q 390 802 403 781 q 356 839 378 824 q 300 854 335 854 q 243 830 264 854 q 211 770 222 806 q 197 694 200 735 q 194 619 194 653 l 194 588 q 195 572 194 579 q 196 556 196 564 l 49 556 l 49 576 q 54 719 49 647 q 85 851 60 792 q 161 949 110 911 q 306 986 213 986 q 423 964 375 986 q 501 906 471 942 q 545 822 532 869 q 558 725 558 775 z "},"3":{"ha":572,"x_min":28,"x_max":524,"o":"m 408 483 q 472 459 449 475 q 507 418 496 443 q 521 360 518 393 q 524 286 524 326 q 517 155 524 211 q 486 61 511 99 q 412 5 461 24 q 276 -14 363 -14 q 141 5 190 -14 q 67 62 92 24 q 37 158 43 100 q 31 292 31 215 l 164 292 q 166 238 164 268 q 178 181 168 207 q 212 136 189 154 q 276 118 235 118 q 342 136 319 118 q 376 181 365 154 q 388 238 386 207 q 390 292 390 268 q 387 338 390 315 q 372 378 383 360 q 337 406 360 396 q 276 417 314 417 l 203 417 l 203 542 l 272 542 q 333 555 310 542 q 368 588 356 568 q 384 633 381 608 q 388 681 388 657 q 386 735 388 704 q 374 792 385 765 q 340 836 364 818 q 272 854 317 854 q 208 836 231 854 q 174 792 185 818 q 162 735 164 765 q 160 681 160 704 l 28 681 q 36 806 28 750 q 70 903 44 863 q 144 965 96 943 q 272 986 193 986 q 386 974 339 986 q 463 933 433 963 q 507 854 493 904 q 521 729 521 804 q 519 641 521 682 q 506 568 517 600 q 473 514 496 536 q 407 483 450 492 l 408 483 z "},"4":{"ha":654,"x_min":26,"x_max":606,"o":"m 535 972 l 535 328 l 606 328 l 606 196 l 535 196 l 535 0 l 389 0 l 389 196 l 26 196 l 110 972 l 243 972 l 181 328 l 389 328 l 389 972 l 535 972 z "},"5":{"ha":613,"x_min":49,"x_max":585,"o":"m 388 668 q 492 642 453 668 q 551 570 531 615 q 578 464 572 525 q 585 333 585 403 q 579 202 585 265 q 548 91 574 139 q 469 15 522 43 q 319 -14 415 -14 q 170 15 224 -14 q 92 91 117 43 q 61 202 67 139 q 56 333 56 265 l 201 333 q 203 266 201 304 q 217 194 206 228 q 253 135 229 160 q 319 111 276 111 q 387 135 363 111 q 422 194 411 160 q 436 266 433 228 q 439 333 439 304 q 436 399 439 363 q 422 467 433 435 q 387 520 411 499 q 319 542 363 542 q 265 526 286 542 q 231 488 243 510 q 212 442 218 465 q 204 403 206 418 l 49 460 l 49 972 l 510 972 l 510 840 l 194 840 l 194 589 q 240 629 213 611 q 301 656 264 644 q 388 668 338 668 z "},"6":{"ha":583,"x_min":28,"x_max":556,"o":"m 175 972 l 324 972 l 210 632 q 254 664 229 650 q 308 685 276 675 q 382 694 340 694 q 466 672 432 694 q 519 606 500 650 q 547 498 539 563 q 556 347 556 433 q 547 195 556 263 q 512 81 539 128 q 432 10 485 35 q 292 -14 379 -14 q 152 10 204 -14 q 72 81 100 35 q 36 195 44 128 q 28 347 28 263 q 28 395 28 368 q 30 451 28 422 q 35 504 32 479 q 44 546 39 529 l 46 546 l 175 972 m 410 347 q 408 417 410 379 q 394 487 406 454 q 358 541 382 519 q 292 563 335 563 q 225 541 249 563 q 190 487 201 519 q 176 417 178 454 q 174 347 174 379 q 176 276 174 315 q 190 201 178 236 q 225 142 201 165 q 292 118 249 118 q 358 142 335 118 q 394 201 382 165 q 408 276 406 236 q 410 347 410 315 z "},"7":{"ha":426,"x_min":0,"x_max":378,"o":"m 378 972 l 378 840 q 308 660 339 774 q 260 401 282 563 q 238 0 238 240 l 92 0 q 124 444 92 231 q 246 850 156 657 l 0 850 l 0 972 l 378 972 z "},"8":{"ha":556,"x_min":26,"x_max":528,"o":"m 274 -14 q 138 3 188 -14 q 64 56 89 21 q 33 144 39 92 q 26 267 26 197 l 26 313 q 29 384 26 353 q 42 438 32 415 q 73 476 53 461 q 128 497 93 490 l 129 497 q 76 519 96 504 q 47 557 57 535 q 33 609 36 579 q 31 675 31 639 l 31 719 q 31 745 31 732 q 32 772 32 758 q 37 844 32 807 q 65 913 42 882 q 139 965 89 944 q 278 986 189 986 q 416 965 367 986 q 490 913 465 944 q 519 844 514 882 q 524 772 524 807 l 524 719 l 524 675 q 521 609 524 639 q 508 557 518 579 q 478 519 497 535 q 425 497 458 504 l 426 497 q 481 476 461 490 q 512 438 501 461 q 525 384 522 415 q 528 313 528 353 l 528 267 l 528 210 q 523 132 528 172 q 494 60 518 92 q 420 7 469 28 q 281 -14 371 -14 l 274 -14 m 278 549 q 342 562 319 549 q 375 595 364 575 q 388 638 386 615 q 390 681 390 661 q 388 730 390 700 q 375 788 386 760 q 342 835 364 815 q 278 854 319 854 q 214 835 236 854 q 181 788 192 815 q 167 730 169 760 q 165 681 165 700 q 167 638 165 661 q 181 595 169 615 q 214 562 192 575 q 278 549 236 549 m 274 424 q 210 410 232 424 q 176 378 188 397 q 163 335 165 358 q 161 292 161 311 q 163 242 161 271 q 176 185 165 213 q 210 138 188 157 q 274 118 232 118 l 281 118 q 345 138 322 118 q 379 185 368 157 q 392 242 390 213 q 394 292 394 271 q 392 335 394 311 q 379 378 390 358 q 345 410 368 397 q 281 424 322 424 l 274 424 z "},"9":{"ha":583,"x_min":28,"x_max":556,"o":"m 394 0 l 244 0 l 365 311 l 365 311 q 343 301 360 307 q 303 291 326 296 q 256 282 281 286 q 210 278 231 278 q 108 305 144 278 q 53 379 71 332 q 32 490 36 426 q 28 625 28 553 q 33 763 28 697 q 64 878 39 828 q 142 957 89 928 q 292 986 196 986 q 444 956 390 986 q 522 872 497 926 q 551 743 547 818 q 556 578 556 668 q 553 503 556 540 q 540 433 551 465 l 539 433 q 535 419 536 422 q 533 413 535 415 l 394 0 m 410 625 q 408 697 410 657 q 394 772 406 736 q 358 831 382 807 q 292 854 335 854 q 225 831 249 854 q 190 772 201 807 q 176 697 178 736 q 174 625 174 657 q 176 556 174 593 q 190 485 178 518 q 225 431 201 453 q 292 410 249 410 q 358 431 335 410 q 394 485 382 453 q 408 556 406 518 q 410 625 410 593 z "},"\u0000":{"ha":0,"x_min":0,"x_max":0,"o":""},"\r":{"ha":347,"x_min":0,"x_max":0,"o":""}," ":{"ha":208,"x_min":0,"x_max":0,"o":""},"A":{"ha":611,"x_min":-1,"x_max":611,"o":"m 418 972 l 611 0 l 464 0 l 431 181 l 181 181 l 146 0 l -1 0 l 192 972 l 418 972 m 208 318 l 400 318 l 304 800 l 208 318 z "},"B":{"ha":596,"x_min":49,"x_max":568,"o":"m 289 972 q 438 949 385 972 q 517 887 492 926 q 549 794 543 847 q 554 681 554 742 q 551 613 554 644 q 540 557 549 582 q 513 516 531 532 q 464 494 494 500 l 465 494 q 517 472 497 490 q 548 427 536 454 q 564 365 560 400 q 568 292 568 331 q 563 178 568 232 q 531 85 557 125 q 452 23 506 46 q 303 0 399 0 l 49 0 l 49 972 l 289 972 m 194 535 l 290 535 q 357 550 333 535 q 392 588 381 565 q 406 635 404 610 q 408 681 408 660 q 406 728 408 701 q 392 781 403 756 q 356 823 381 806 q 289 840 332 840 l 194 840 l 194 535 m 194 132 l 303 132 q 376 149 351 132 q 412 192 401 167 q 422 244 422 217 q 422 292 422 271 q 419 332 422 313 q 406 367 417 351 q 370 393 394 383 q 303 403 346 403 l 194 403 l 194 132 z "},"C":{"ha":582,"x_min":28,"x_max":554,"o":"m 554 358 q 543 214 554 282 q 503 95 532 146 q 423 15 474 44 q 292 -14 372 -14 q 142 26 196 -14 q 64 135 89 67 q 33 295 39 204 q 28 486 28 386 q 33 677 28 586 q 63 837 38 768 q 142 946 89 906 q 292 986 196 986 q 423 957 372 986 q 503 878 474 928 q 543 760 532 828 q 554 614 554 692 l 408 614 q 401 693 408 651 q 381 771 394 735 q 344 831 367 807 q 292 854 322 854 q 225 819 249 854 q 190 731 201 785 q 176 612 178 676 q 174 486 174 547 q 176 363 174 426 q 190 249 178 300 q 225 165 201 197 q 292 132 249 132 q 344 153 322 132 q 381 208 367 175 q 401 281 394 240 q 408 358 408 321 l 554 358 z "},"D":{"ha":585,"x_min":49,"x_max":557,"o":"m 293 972 q 445 934 392 972 q 524 830 499 896 q 553 675 549 764 q 557 486 557 586 q 553 297 557 386 q 524 142 549 208 q 445 38 499 76 q 293 0 392 0 l 49 0 l 49 972 l 293 972 m 293 132 q 354 165 333 132 q 385 249 375 197 q 397 363 396 300 q 399 486 399 426 q 397 610 399 547 q 385 724 396 672 q 354 808 375 775 q 293 840 333 840 l 194 840 l 194 132 l 293 132 z "},"E":{"ha":407,"x_min":49,"x_max":379,"o":"m 379 972 l 379 840 l 194 840 l 194 560 l 363 560 l 363 428 l 194 428 l 194 132 l 379 132 l 379 0 l 49 0 l 49 972 l 379 972 z "},"F":{"ha":407,"x_min":49,"x_max":379,"o":"m 379 972 l 379 840 l 194 840 l 194 507 l 351 507 l 351 375 l 194 375 l 194 0 l 49 0 l 49 972 l 379 972 z "},"G":{"ha":569,"x_min":28,"x_max":542,"o":"m 333 335 l 333 467 l 542 467 l 542 404 q 536 263 542 336 q 506 128 531 189 q 431 26 481 67 q 292 -14 381 -14 q 142 26 196 -14 q 64 135 89 67 q 33 295 39 204 q 28 486 28 386 q 33 677 28 586 q 63 837 38 768 q 142 946 89 906 q 292 986 196 986 q 423 955 374 986 q 498 870 472 924 q 532 745 524 817 q 542 592 540 674 l 396 592 q 392 678 396 632 q 378 764 389 725 q 347 828 367 803 q 292 854 326 854 q 225 819 249 854 q 190 731 201 785 q 176 612 178 676 q 174 486 174 547 q 176 361 174 426 q 190 242 178 296 q 225 153 201 188 q 292 118 249 118 q 340 141 321 118 q 371 197 360 164 q 387 268 382 231 q 393 335 392 306 l 333 335 z "},"H":{"ha":592,"x_min":49,"x_max":543,"o":"m 543 972 l 543 0 l 397 0 l 397 360 l 194 360 l 194 0 l 49 0 l 49 972 l 194 972 l 194 492 l 397 492 l 397 972 l 543 972 z "},"I":{"ha":243,"x_min":49,"x_max":194,"o":"m 49 972 l 194 972 l 194 0 l 49 0 l 49 972 z "},"J":{"ha":438,"x_min":44,"x_max":389,"o":"m 389 472 q 380 265 389 356 q 342 112 371 174 q 262 18 314 50 q 124 -14 210 -14 q 94 -13 108 -14 q 69 -10 81 -12 q 44 -6 56 -8 l 44 126 l 44 126 q 126 133 90 126 q 189 172 163 139 q 229 274 215 204 q 243 471 243 343 l 243 972 l 389 972 l 389 472 z "},"K":{"ha":543,"x_min":49,"x_max":531,"o":"m 194 972 l 194 508 l 242 508 l 354 972 l 501 972 l 371 486 l 372 486 l 531 0 l 382 0 l 242 418 l 194 418 l 194 0 l 49 0 l 49 972 l 194 972 z "},"L":{"ha":413,"x_min":49,"x_max":385,"o":"m 194 972 l 194 132 l 385 132 l 385 0 l 49 0 l 49 972 l 194 972 z "},"M":{"ha":871,"x_min":49,"x_max":822,"o":"m 822 972 l 822 0 l 676 0 l 676 683 l 488 0 l 382 0 l 194 683 l 194 0 l 49 0 l 49 972 l 271 972 l 435 328 l 597 972 l 822 972 z "},"N":{"ha":628,"x_min":49,"x_max":596,"o":"m 579 972 l 579 0 l 596 0 l 431 0 l 194 617 l 194 0 l 49 0 l 49 972 l 196 972 l 433 369 l 433 972 l 579 972 z "},"O":{"ha":583,"x_min":28,"x_max":556,"o":"m 292 986 q 441 946 388 986 q 519 837 494 906 q 550 677 544 768 q 556 486 556 586 q 550 295 556 386 q 519 135 544 204 q 441 26 494 67 q 292 -14 388 -14 q 142 26 196 -14 q 64 137 89 67 q 33 299 39 207 q 28 496 28 392 q 33 682 28 593 q 63 838 38 771 q 142 946 89 906 q 292 986 196 986 m 174 486 q 176 361 174 426 q 190 242 178 296 q 225 153 201 188 q 292 118 249 118 q 358 153 335 118 q 394 242 382 188 q 408 361 406 296 q 410 486 410 426 q 408 612 410 547 q 394 731 406 676 q 358 819 382 785 q 292 854 335 854 q 225 819 249 854 q 190 731 201 785 q 176 612 178 676 q 174 486 174 547 z "},"P":{"ha":568,"x_min":49,"x_max":533,"o":"m 286 972 q 422 945 372 972 q 496 871 471 918 q 527 760 521 824 q 533 624 533 697 l 533 582 q 527 444 533 508 q 496 334 521 381 q 422 260 471 288 q 286 233 372 233 l 194 233 l 194 0 l 49 0 l 49 972 l 286 972 m 286 365 q 341 386 321 365 q 372 441 361 407 q 385 517 382 475 q 388 603 388 560 q 385 688 388 646 q 372 765 382 731 q 341 819 361 799 q 286 840 321 840 l 194 840 l 194 365 l 286 365 z "},"Q":{"ha":589,"x_min":28,"x_max":557,"o":"m 293 -14 q 144 26 197 -14 q 65 135 90 67 q 33 295 39 204 q 28 486 28 386 q 33 678 28 588 q 63 837 38 768 q 142 946 89 906 q 293 986 196 986 q 442 946 389 986 q 520 837 494 906 q 551 678 546 768 q 557 486 557 588 q 555 342 557 413 q 543 213 553 272 q 513 106 533 153 q 457 33 493 60 l 528 -18 l 424 -122 l 315 -14 l 293 -14 m 174 486 q 176 361 174 426 q 190 242 178 296 q 226 153 201 188 q 293 118 250 118 q 360 153 336 118 q 395 242 383 188 q 409 361 407 296 q 411 486 411 426 q 409 611 411 546 q 395 731 407 676 q 360 819 383 785 q 293 854 336 854 q 226 819 250 854 q 190 731 201 785 q 176 611 178 676 q 174 486 174 546 z "},"R":{"ha":571,"x_min":49,"x_max":557,"o":"m 49 972 l 268 972 q 417 946 364 972 q 497 874 471 919 q 528 768 522 829 q 533 638 533 707 q 527 545 533 594 q 508 454 521 496 q 472 385 494 413 q 417 358 450 358 q 472 319 449 358 q 513 223 496 279 q 541 106 531 167 q 557 0 551 44 l 410 0 q 394 101 404 49 q 365 199 383 154 q 322 274 347 244 q 261 303 297 303 l 194 303 l 194 0 l 49 0 l 49 972 m 268 435 q 335 456 311 435 q 371 507 360 476 q 385 573 382 538 q 388 638 388 608 q 385 702 388 667 q 371 768 382 738 q 335 819 360 799 q 268 840 311 840 l 194 840 l 194 435 l 268 435 z "},"S":{"ha":571,"x_min":28,"x_max":550,"o":"m 174 721 q 190 649 174 679 q 236 590 206 618 q 310 533 267 563 q 410 464 354 504 q 469 419 443 440 q 513 372 494 397 q 540 315 531 347 q 550 240 550 283 q 480 53 550 119 q 292 -14 410 -14 q 94 76 158 -14 q 29 353 29 165 l 175 353 q 183 265 175 307 q 208 190 192 222 q 248 137 224 157 q 306 115 272 117 q 374 138 344 113 q 404 210 404 163 q 393 258 404 238 q 363 297 382 278 q 320 333 344 315 q 268 371 296 350 q 158 459 204 419 q 83 540 113 499 q 41 632 54 582 q 28 751 28 682 q 92 923 28 860 q 276 986 157 986 q 474 897 411 986 q 536 611 536 807 l 536 569 l 390 569 l 390 600 l 390 629 q 363 797 390 739 q 279 854 335 854 q 203 817 233 854 q 174 721 174 781 z "},"T":{"ha":492,"x_min":14,"x_max":478,"o":"m 478 972 l 478 840 l 318 840 l 318 0 l 172 0 l 172 840 l 14 840 l 14 972 l 478 972 z "},"U":{"ha":625,"x_min":49,"x_max":576,"o":"m 431 972 l 576 972 l 576 486 q 571 295 576 386 q 540 135 565 204 q 462 26 515 67 q 313 -14 408 -14 q 163 26 217 -14 q 85 135 110 67 q 54 295 60 204 q 49 486 49 386 l 49 972 l 194 972 l 194 486 q 197 361 194 426 q 210 242 199 296 q 246 153 222 188 q 313 118 269 118 q 379 153 356 118 q 415 242 403 188 q 428 361 426 296 q 431 486 431 426 l 431 972 z "},"V":{"ha":539,"x_min":-1,"x_max":539,"o":"m 539 972 l 404 0 l 133 0 l -1 972 l 146 972 l 268 153 l 392 972 l 539 972 z "},"W":{"ha":881,"x_min":-1,"x_max":881,"o":"m 881 972 l 758 0 l 525 0 l 439 657 l 354 0 l 121 0 l -1 972 l 146 972 l 233 190 l 372 972 l 506 972 l 644 190 l 733 972 l 881 972 z "},"X":{"ha":563,"x_min":-3,"x_max":564,"o":"m 550 972 l 397 503 l 564 0 l 415 0 l 281 432 l 281 432 l 146 0 l -3 0 l 164 503 l 11 972 l 160 972 l 281 574 l 281 574 l 401 972 l 550 972 z "},"Z":{"ha":461,"x_min":14,"x_max":447,"o":"m 447 972 l 204 132 l 392 132 l 392 0 l 14 0 l 271 840 l 58 840 l 58 972 l 447 972 z "},"Y":{"ha":625,"x_min":49,"x_max":576,"o":"m 431 972 l 576 972 l 576 778 q 569 611 576 690 q 542 469 563 532 q 485 364 522 407 q 386 304 447 321 l 386 304 l 386 0 l 240 0 l 240 304 l 240 304 q 142 364 179 321 q 83 469 104 407 q 56 611 63 532 q 49 778 49 690 l 49 972 l 194 972 l 194 778 q 197 655 194 718 q 210 541 199 592 q 246 458 222 490 q 313 425 269 425 q 379 458 356 425 q 415 541 403 490 q 428 655 426 592 q 431 778 431 718 l 431 972 z "},".":{"ha":292,"x_min":42,"x_max":250,"o":"m 146 208 q 228 178 206 208 q 250 104 250 149 q 228 30 250 60 q 146 0 206 0 q 64 30 86 0 q 42 104 42 60 q 64 178 42 149 q 146 208 86 208 z "},",":{"ha":265,"x_min":14,"x_max":251,"o":"m 251 186 l 153 -47 l 14 -47 l 57 186 l 251 186 z "},"@":{"ha":996,"x_min":28,"x_max":968,"o":"m 574 715 l 721 715 l 721 514 q 726 416 721 454 q 739 356 731 378 q 758 327 747 335 q 781 319 768 319 q 805 326 793 319 q 827 350 817 333 q 844 395 838 367 q 850 467 850 424 q 825 620 850 550 q 754 741 800 690 q 643 821 708 792 q 497 850 578 850 q 351 822 417 850 q 240 744 286 793 q 170 628 194 694 q 146 486 146 561 q 170 344 146 411 q 240 228 194 278 q 351 151 286 179 q 497 122 417 122 q 603 136 554 122 q 692 176 651 150 l 692 38 q 599 10 647 19 q 497 0 551 0 q 302 38 389 0 q 154 142 215 76 q 60 297 93 208 q 28 486 28 386 q 60 675 28 586 q 154 830 93 764 q 302 934 215 896 q 497 972 389 972 q 692 934 606 972 q 840 829 779 896 q 935 674 901 763 q 968 482 968 585 q 952 356 968 410 q 909 265 936 301 q 848 212 882 229 q 778 194 814 194 q 676 231 725 194 q 599 347 626 268 q 551 277 586 304 q 443 250 517 250 q 348 269 382 250 q 297 319 314 288 q 277 394 281 351 q 274 486 274 438 q 277 578 274 535 q 297 653 281 621 q 347 703 313 685 q 442 722 381 722 q 523 710 492 722 q 574 675 554 697 l 574 715 m 574 486 q 572 534 574 511 q 563 574 571 557 q 540 600 556 590 q 497 610 525 610 q 454 600 469 610 q 432 574 439 590 q 424 534 425 557 q 422 486 422 511 q 424 438 422 461 q 432 399 425 415 q 454 372 439 382 q 497 363 469 363 q 540 372 525 363 q 563 399 556 382 q 572 438 571 415 q 574 486 574 461 z "},"$":{"ha":578,"x_min":28,"x_max":550,"o":"m 550 229 q 502 76 550 139 q 372 -1 454 14 l 347 -1 l 347 -51 l 215 -51 l 215 3 l 192 3 q 124 37 153 14 q 75 99 94 60 q 44 194 56 138 q 28 329 32 251 l 175 329 q 185 251 175 289 q 214 185 196 214 q 254 140 232 157 q 301 122 276 122 q 355 134 335 122 q 386 163 375 146 q 401 201 397 181 q 404 239 404 222 q 397 261 404 250 q 374 287 390 272 q 331 321 358 301 q 264 367 304 340 q 155 449 200 408 q 82 532 110 490 q 41 618 54 574 q 28 713 28 663 q 43 805 28 761 q 84 881 58 849 q 144 933 110 914 q 215 951 178 951 l 215 951 l 215 1004 l 347 1004 l 347 953 l 347 953 q 456 916 418 953 q 513 824 494 879 q 533 706 531 769 q 536 590 536 643 l 536 567 l 536 546 l 390 546 l 390 576 l 390 606 q 362 777 390 718 q 281 836 333 836 q 230 823 250 836 q 197 788 210 810 q 179 738 185 765 q 174 683 174 711 q 183 640 174 661 q 213 597 192 619 q 270 548 235 574 q 357 490 306 522 q 447 427 410 457 q 506 367 483 397 q 540 303 529 336 q 550 229 550 269 z "},"?":{"ha":578,"x_min":35,"x_max":543,"o":"m 543 701 q 527 599 543 642 q 485 524 511 556 q 428 468 460 492 q 367 424 397 444 q 312 385 338 404 q 266 348 286 367 q 234 308 246 329 q 222 264 222 288 l 118 264 q 131 358 118 318 q 165 429 144 399 q 213 483 186 460 q 265 528 239 507 q 315 568 290 549 q 357 608 339 588 q 386 652 375 629 q 397 700 397 675 q 394 741 397 717 q 381 787 392 765 q 349 824 371 808 q 289 840 326 840 q 227 817 249 840 q 195 758 206 793 q 183 685 185 724 q 181 615 181 646 l 181 556 l 35 556 l 35 597 q 44 745 35 676 q 81 864 53 814 q 160 943 108 914 q 294 972 211 972 q 478 905 414 972 q 543 701 543 838 m 169 194 q 222 166 207 194 q 236 97 236 138 q 222 28 236 57 q 169 0 207 0 q 118 28 132 0 q 104 97 104 57 q 118 166 104 138 q 169 194 132 194 z "},"!":{"ha":229,"x_min":47,"x_max":181,"o":"m 114 194 q 166 166 151 194 q 181 97 181 138 q 166 28 181 57 q 114 0 151 0 q 63 28 76 0 q 49 97 49 57 q 63 166 49 138 q 114 194 76 194 m 167 264 l 61 264 l 47 972 l 181 972 l 167 264 z "},"&":{"ha":790,"x_min":49,"x_max":747,"o":"m 747 393 q 690 303 721 347 q 628 219 660 260 q 679 115 660 171 q 699 0 699 60 l 565 0 q 562 44 565 22 q 551 88 558 67 l 538 132 q 467 67 507 94 q 383 21 432 42 q 272 0 335 0 q 175 19 217 0 q 106 71 133 38 q 63 151 78 104 q 49 253 49 197 q 83 392 49 336 q 189 490 117 449 q 93 726 93 590 q 160 910 93 847 q 344 972 226 972 q 532 908 464 972 q 600 721 600 843 q 555 560 600 622 q 426 449 510 497 l 547 332 q 574 368 561 347 q 600 411 588 389 q 624 456 613 433 q 644 496 635 478 l 747 393 m 454 738 q 444 785 454 765 q 418 817 433 804 q 385 835 403 829 q 351 840 367 840 q 313 833 333 840 q 276 813 293 826 q 249 778 260 799 q 239 731 239 757 q 253 666 239 699 q 286 607 268 633 q 333 549 307 576 q 394 604 367 574 q 435 663 417 629 q 454 738 454 697 m 294 132 q 344 141 318 132 q 394 164 371 150 q 436 194 418 178 q 460 225 454 211 l 308 375 q 290 364 308 374 q 251 336 272 354 q 213 292 231 318 q 194 231 194 265 q 226 158 194 185 q 294 132 257 132 z "},"#":{"ha":786,"x_min":49,"x_max":738,"o":"m 143 972 l 310 972 l 310 0 l 143 0 l 143 972 m 482 972 l 649 972 l 649 0 l 482 0 l 482 972 m 49 743 l 738 743 l 738 549 l 49 549 l 49 743 m 49 424 l 738 424 l 738 229 l 49 229 l 49 424 z "},"%":{"ha":983,"x_min":49,"x_max":935,"o":"m 388 729 q 384 635 388 679 q 364 557 381 590 q 313 505 347 524 q 218 486 279 486 q 122 505 156 486 q 72 557 88 524 q 52 635 56 590 q 49 729 49 679 q 52 824 49 779 q 72 901 56 868 q 122 953 88 935 q 218 972 156 972 q 313 953 279 972 q 364 901 347 935 q 384 824 381 868 q 388 729 388 779 m 350 0 l 242 0 l 632 972 l 740 972 l 350 0 m 283 729 q 283 786 283 760 q 276 833 282 813 q 256 864 269 853 q 218 875 243 875 q 181 864 194 875 q 162 833 168 853 q 154 786 156 813 q 153 729 153 760 q 154 672 153 699 q 162 626 156 646 q 181 595 168 607 q 218 583 194 583 q 256 595 243 583 q 276 626 269 607 q 283 672 282 646 q 283 729 283 699 m 765 486 q 860 467 826 486 q 911 415 894 449 q 931 338 928 382 q 935 243 935 293 q 931 149 935 193 q 911 71 928 104 q 860 19 894 38 q 765 0 826 0 q 669 19 703 0 q 619 71 635 38 q 599 149 603 104 q 596 243 596 193 q 599 338 596 293 q 619 415 603 382 q 669 467 635 449 q 765 486 703 486 m 765 389 q 728 378 742 389 q 709 347 715 367 q 701 300 703 326 q 700 243 700 274 q 701 186 700 213 q 709 140 703 160 q 728 109 715 121 q 765 97 742 97 q 803 109 790 97 q 823 140 817 121 q 830 186 829 160 q 831 243 831 213 q 830 300 831 274 q 823 347 829 326 q 803 378 817 367 q 765 389 790 389 z "},"€":{"ha":696,"x_min":49,"x_max":647,"o":"m 383 133 q 437 154 415 133 q 473 208 458 175 q 494 281 488 242 q 500 358 500 321 l 647 358 q 636 216 647 282 q 596 102 625 150 q 515 27 567 54 q 383 0 464 0 q 269 21 315 0 q 193 78 222 42 q 149 167 164 115 q 126 282 133 219 l 49 282 l 49 421 l 121 421 l 121 500 l 49 500 l 49 639 l 122 639 q 139 774 126 713 q 181 878 151 835 q 258 947 210 922 q 383 972 307 972 q 515 945 464 972 q 596 870 567 918 q 636 757 625 822 q 647 614 647 692 l 500 614 q 494 691 500 651 q 473 763 488 731 q 437 817 458 796 q 383 839 415 839 q 334 819 354 839 q 301 770 314 800 q 281 706 288 740 q 271 639 274 671 l 360 639 l 360 500 l 267 500 l 267 421 l 360 421 l 360 282 l 278 282 q 290 235 282 261 q 311 187 299 210 q 342 149 324 164 q 383 133 360 133 z "},"¢":{"ha":624,"x_min":49,"x_max":575,"o":"m 313 122 q 365 143 343 122 q 401 197 388 164 q 422 270 415 231 q 429 347 429 310 l 575 347 q 564 222 575 281 q 528 119 553 164 q 467 42 504 74 q 378 -1 431 11 l 378 -1 l 378 -53 l 246 -53 l 246 0 l 246 0 q 144 58 183 15 q 85 165 106 101 q 56 307 64 228 q 49 475 49 386 q 56 643 49 564 q 84 785 63 722 q 144 892 106 849 q 246 950 183 935 l 246 950 l 246 1003 l 378 1003 l 378 951 l 378 951 q 467 908 431 939 q 528 831 504 876 q 564 728 553 786 q 575 603 575 669 l 429 603 q 422 680 429 640 q 401 753 415 719 q 365 808 388 786 q 313 829 343 829 q 246 797 269 829 q 210 713 222 764 q 197 599 199 661 q 194 475 194 536 q 197 352 194 415 q 210 238 199 289 q 246 155 222 188 q 313 122 269 122 z "},"£":{"ha":658,"x_min":49,"x_max":610,"o":"m 222 388 q 222 328 221 364 q 221 254 222 292 q 215 184 219 217 q 199 132 210 151 l 582 132 l 582 0 l 49 0 l 49 132 q 76 163 68 132 q 88 235 85 193 q 91 319 92 276 q 90 388 90 363 l 49 388 l 49 519 l 82 519 q 89 697 82 614 q 122 840 96 779 q 201 937 149 901 q 347 972 254 972 q 478 945 428 972 q 558 870 529 918 q 599 757 588 822 q 610 614 610 692 l 464 614 q 457 691 464 651 q 436 763 450 731 q 400 817 422 796 q 347 839 378 839 q 283 809 307 839 q 248 733 260 779 q 233 631 236 688 q 229 519 229 574 l 424 519 l 424 388 l 222 388 z "},"¥":{"ha":625,"x_min":49,"x_max":576,"o":"m 576 972 q 574 806 576 885 q 556 663 571 726 q 506 557 540 600 q 408 497 471 514 l 386 497 l 386 458 l 485 458 l 485 319 l 386 319 l 386 258 l 485 258 l 485 119 l 386 119 l 386 0 l 240 0 l 240 119 l 140 119 l 140 258 l 240 258 l 240 319 l 140 319 l 140 458 l 240 458 l 240 497 l 217 497 q 119 557 154 514 q 69 663 85 600 q 51 806 54 726 q 49 972 49 885 l 208 972 q 210 848 208 913 q 221 731 211 783 q 252 645 231 679 q 313 611 274 611 q 374 645 353 611 q 405 731 394 679 q 417 848 415 783 q 418 972 418 913 l 576 972 z "},"*":{"ha":336,"x_min":14,"x_max":322,"o":"m 14 796 l 86 824 l 14 851 l 61 939 l 129 889 l 118 972 l 218 972 l 207 889 l 275 939 l 322 851 l 250 824 l 322 796 l 275 708 l 207 758 l 218 675 l 118 675 l 129 758 l 61 708 l 14 796 z "},"[":{"ha":313,"x_min":49,"x_max":264,"o":"m 264 1000 l 264 868 l 181 868 l 181 104 l 264 104 l 264 -28 l 49 -28 l 49 1000 l 264 1000 z "},"]":{"ha":313,"x_min":49,"x_max":264,"o":"m 264 -28 l 49 -28 l 49 104 l 132 104 l 132 868 l 49 868 l 49 1000 l 264 1000 l 264 -28 z "},"…":{"ha":667,"x_min":7,"x_max":660,"o":"m 111 208 q 193 178 171 208 q 215 104 215 149 q 193 30 215 60 q 111 0 171 0 q 29 30 51 0 q 7 104 7 60 q 29 178 7 149 q 111 208 51 208 m 333 208 q 415 178 393 208 q 438 104 438 149 q 415 30 438 60 q 333 0 393 0 q 251 30 274 0 q 229 104 229 60 q 251 178 229 149 q 333 208 274 208 m 556 208 q 638 178 615 208 q 660 104 660 149 q 638 30 660 60 q 556 0 615 0 q 474 30 496 0 q 451 104 451 60 q 474 178 451 149 q 556 208 496 208 z "},"(":{"ha":331,"x_min":49,"x_max":282,"o":"m 282 806 q 224 778 244 806 q 194 706 204 751 q 183 604 185 661 q 181 486 181 547 q 183 369 181 426 q 194 267 185 311 q 225 195 204 222 q 282 168 246 168 l 282 -28 q 150 15 197 -28 q 81 128 103 57 q 53 293 58 200 q 49 486 49 386 q 53 679 49 586 q 80 844 57 772 q 150 958 103 915 q 282 1000 197 1000 l 282 806 z "},")":{"ha":331,"x_min":17,"x_max":282,"o":"m 17 1000 q 166 958 113 1000 q 245 844 219 915 q 276 679 271 772 q 282 486 282 586 q 277 293 282 386 q 249 128 272 200 q 180 15 226 57 q 49 -28 133 -28 l 49 168 q 106 195 85 168 q 136 267 126 222 q 148 369 146 311 q 150 486 150 426 q 148 604 150 547 q 136 706 146 661 q 106 778 126 751 q 49 806 86 806 l 49 1000 l 17 1000 z "},"{":{"ha":392,"x_min":49,"x_max":343,"o":"m 343 813 q 297 799 314 813 q 271 765 279 786 q 260 720 263 744 q 257 675 257 696 l 257 658 l 258 646 q 253 572 258 601 q 242 526 249 543 q 226 499 235 508 q 208 486 217 490 q 226 474 217 482 q 242 449 235 465 q 253 406 249 432 q 258 342 258 381 q 258 327 258 335 q 257 313 257 319 q 256 296 257 304 q 256 278 256 288 q 258 235 256 256 q 271 197 261 214 q 297 171 281 181 q 343 161 314 161 l 343 -28 q 245 -1 282 -28 q 187 69 208 26 q 156 164 165 113 q 139 264 146 215 q 137 277 138 271 q 135 290 136 283 q 124 351 129 326 q 109 390 118 375 q 86 410 100 404 q 49 415 72 415 l 49 557 q 86 563 72 557 q 109 583 100 568 q 124 622 118 597 q 135 682 129 646 q 137 695 136 689 q 139 708 138 701 q 156 809 146 757 q 186 903 165 861 q 244 973 207 946 q 343 1000 282 1000 l 343 813 z "},"}":{"ha":392,"x_min":17,"x_max":343,"o":"m 17 1000 q 133 973 90 1000 q 200 903 176 946 q 234 809 224 861 q 251 708 244 757 q 253 695 253 701 q 256 682 254 689 q 267 622 261 646 q 281 583 272 597 q 305 563 290 568 q 343 557 319 557 l 343 415 q 305 410 319 415 q 281 390 290 404 q 267 351 272 375 q 256 290 261 326 q 253 277 254 283 q 251 264 253 271 q 235 163 244 215 q 204 69 225 111 q 147 -1 183 26 q 49 -28 110 -28 l 49 161 q 94 171 76 161 q 120 197 111 181 q 132 235 129 214 q 135 278 135 256 q 134 296 135 288 q 133 313 133 304 l 133 342 q 138 406 133 381 q 149 449 142 432 q 165 474 157 465 q 182 486 174 482 q 165 499 174 490 q 149 526 156 508 q 137 572 142 543 q 132 646 132 601 l 133 658 q 132 708 133 682 q 123 758 131 735 q 98 797 115 782 q 49 813 81 813 l 49 1000 l 17 1000 z "},"|":{"ha":229,"x_min":49,"x_max":181,"o":"m 49 1000 l 181 1000 l 181 -28 l 49 -28 l 49 1000 z "},"/":{"ha":389,"x_min":0,"x_max":389,"o":"m 250 1000 l 389 1000 l 139 -28 l 0 -28 l 250 1000 z "},"\\":{"ha":389,"x_min":0,"x_max":389,"o":"m 250 -28 l 0 1000 l 139 1000 l 389 -28 l 250 -28 z "},"-":{"ha":451,"x_min":49,"x_max":403,"o":"m 403 490 l 49 490 l 49 622 l 403 622 l 403 490 z "},":":{"ha":292,"x_min":49,"x_max":243,"o":"m 146 792 q 222 763 201 792 q 243 694 243 735 q 222 626 243 654 q 146 597 201 597 q 69 626 90 597 q 49 694 49 654 q 69 763 49 735 q 146 792 90 792 m 146 439 q 222 410 201 439 q 243 342 243 382 q 222 273 243 301 q 146 244 201 244 q 69 273 90 244 q 49 342 49 301 q 69 410 49 382 q 146 439 90 439 z "},";":{"ha":335,"x_min":49,"x_max":286,"o":"m 189 792 q 265 763 244 792 q 286 694 286 735 q 265 626 286 654 q 189 597 244 597 q 113 626 133 597 q 92 694 92 654 q 113 763 92 735 q 189 792 133 792 m 286 439 l 207 206 l 49 206 l 92 439 l 286 439 z "},"˜":{"ha":276,"x_min":0,"x_max":276,"o":"m 139 942 q 177 931 157 936 q 217 926 197 926 q 249 931 233 926 q 276 949 264 936 l 276 824 q 249 806 264 811 q 217 801 233 801 q 177 806 197 801 q 139 817 157 811 q 101 827 121 822 q 63 832 82 832 q 0 808 24 832 l 0 935 q 28 952 13 947 q 60 957 43 957 q 99 952 79 957 q 139 942 119 947 z "},"~":{"ha":508,"x_min":49,"x_max":460,"o":"m 254 507 q 309 491 282 499 q 363 483 336 483 q 413 490 389 482 q 460 519 438 497 l 460 392 q 411 360 436 368 q 360 354 386 353 q 308 363 335 356 q 254 379 282 371 q 199 395 226 388 q 147 403 172 403 q 96 397 121 404 q 49 367 71 389 l 49 496 q 97 527 72 519 q 148 533 122 535 q 201 524 174 532 q 254 507 228 515 z "},"+":{"ha":518,"x_min":50,"x_max":469,"o":"m 50 513 l 469 513 l 469 374 l 50 374 l 50 513 m 190 653 l 329 653 l 329 233 l 190 233 l 190 653 z "},"•":{"ha":375,"x_min":49,"x_max":326,"o":"m 188 625 q 297 585 267 625 q 326 486 326 544 q 297 388 326 428 q 188 347 267 347 q 78 388 108 347 q 49 486 49 428 q 78 585 49 544 q 188 625 108 625 z "},"·":{"ha":306,"x_min":49,"x_max":257,"o":"m 153 590 q 235 560 213 590 q 257 486 257 531 q 235 412 257 442 q 153 382 213 382 q 71 412 93 382 q 49 486 49 442 q 71 560 49 531 q 153 590 93 590 z "},"=":{"ha":463,"x_min":49,"x_max":414,"o":"m 49 729 l 414 729 l 414 563 l 49 563 l 49 729 m 49 410 l 414 410 l 414 243 l 49 243 l 49 410 z "},"^":{"ha":708,"x_min":49,"x_max":660,"o":"m 438 763 l 438 763 l 660 260 l 493 260 l 354 574 l 215 260 l 49 260 l 271 763 l 271 763 l 271 763 l 438 763 l 438 763 z "},"<":{"ha":544,"x_min":49,"x_max":496,"o":"m 49 569 l 49 569 l 496 819 l 496 625 l 238 486 l 496 347 l 496 153 l 49 375 l 49 569 z "},">":{"ha":544,"x_min":49,"x_max":496,"o":"m 496 403 l 496 403 l 496 375 l 49 153 l 49 347 l 307 486 l 49 625 l 49 819 l 496 569 l 496 569 l 496 597 l 496 403 z "},"'":{"ha":222,"x_min":14,"x_max":208,"o":"m 208 972 l 139 781 l 14 781 l 42 972 l 208 972 z "},"’":{"ha":292,"x_min":49,"x_max":243,"o":"m 243 972 l 174 781 l 49 781 l 76 972 l 243 972 z "},"‘":{"ha":222,"x_min":14,"x_max":208,"o":"m 14 972 l 139 972 l 208 781 l 42 781 l 14 972 z "},"\"":{"ha":528,"x_min":49,"x_max":479,"o":"m 243 972 l 174 781 l 49 781 l 76 972 l 243 972 m 479 972 l 410 781 l 285 781 l 313 972 l 479 972 z "},"”":{"ha":528,"x_min":49,"x_max":479,"o":"m 243 972 l 174 781 l 49 781 l 76 972 l 243 972 m 479 972 l 410 781 l 285 781 l 313 972 l 479 972 z "},"“":{"ha":528,"x_min":49,"x_max":479,"o":"m 49 972 l 174 972 l 243 781 l 76 781 l 49 972 m 285 972 l 410 972 l 479 781 l 313 781 l 285 972 z "},"‚":{"ha":335,"x_min":49,"x_max":286,"o":"m 286 186 l 188 -47 l 49 -47 l 92 186 l 286 186 z "},"„":{"ha":599,"x_min":49,"x_max":550,"o":"m 286 186 l 188 -47 l 49 -47 l 92 186 l 286 186 m 550 186 l 451 -47 l 313 -47 l 356 186 l 550 186 z "},"_":{"ha":347,"x_min":0,"x_max":347,"o":"m 0 0 l 347 0 l 347 -139 l 0 -139 l 0 0 z "},"–":{"ha":514,"x_min":49,"x_max":465,"o":"m 465 490 l 49 490 l 49 622 l 465 622 l 465 490 z "},"—":{"ha":792,"x_min":49,"x_max":743,"o":"m 743 451 l 49 451 l 49 583 l 743 583 l 743 451 z "},"¯":{"ha":444,"x_min":49,"x_max":396,"o":"m 396 483 l 49 483 l 49 622 l 396 622 l 396 483 z "},"™":{"ha":592,"x_min":35,"x_max":521,"o":"m 201 969 l 201 922 l 144 922 l 144 622 l 92 622 l 92 922 l 36 922 l 36 969 l 201 969 m 520 969 l 520 622 l 468 622 l 468 866 l 400 622 l 363 622 l 296 866 l 296 622 l 244 622 l 244 969 l 323 969 l 382 739 l 439 969 l 520 969 z "},"¬":{"ha":708,"x_min":49,"x_max":660,"o":"m 49 590 l 660 590 l 660 250 l 528 250 l 528 444 l 49 444 l 49 590 z "},"÷":{"ha":514,"x_min":49,"x_max":465,"o":"m 257 847 q 339 817 317 847 q 361 743 361 788 q 339 669 361 699 q 257 639 317 639 q 175 669 197 639 q 153 743 153 699 q 175 817 153 788 q 257 847 197 847 m 257 347 q 339 317 317 347 q 361 243 361 288 q 339 169 361 199 q 257 139 317 139 q 175 169 197 139 q 153 243 153 199 q 175 317 153 288 q 257 347 197 347 m 465 417 l 49 417 l 49 556 l 465 556 l 465 417 z "},"®":{"ha":972,"x_min":0,"x_max":972,"o":"m 486 972 q 675 934 586 972 q 830 830 764 896 q 934 675 896 764 q 972 486 972 586 q 934 297 972 386 q 830 142 896 208 q 675 38 764 76 q 486 0 586 0 q 297 38 386 0 q 142 142 208 76 q 38 297 76 208 q 0 486 0 386 q 38 675 0 586 q 142 830 76 764 q 297 934 208 896 q 486 972 386 972 m 107 486 q 137 338 107 407 q 218 218 167 269 q 338 137 269 167 q 486 107 407 107 q 634 137 565 107 q 754 218 703 167 q 835 338 806 269 q 865 486 865 407 q 835 634 865 565 q 754 754 806 703 q 634 835 703 806 q 486 865 565 865 q 338 835 407 865 q 218 754 269 806 q 137 634 167 703 q 107 486 107 565 m 326 764 l 471 764 q 566 749 532 764 q 617 708 600 733 q 637 647 633 682 q 640 572 640 613 q 636 519 640 547 q 622 467 632 492 q 596 428 613 443 q 556 413 579 413 q 595 390 579 413 q 622 336 611 368 q 638 269 632 304 q 646 208 643 233 l 526 208 q 519 267 524 236 q 508 323 515 297 q 492 365 501 349 q 467 382 482 382 l 446 382 l 446 208 l 326 208 l 326 764 m 471 493 q 514 516 507 493 q 521 572 521 539 q 514 629 521 606 q 471 653 507 653 l 446 653 l 446 493 l 471 493 z "},"©":{"ha":972,"x_min":0,"x_max":972,"o":"m 972 486 q 934 297 972 386 q 830 142 896 208 q 675 38 764 76 q 486 0 586 0 q 297 38 386 0 q 142 142 208 76 q 38 297 76 208 q 0 486 0 386 q 38 675 0 586 q 142 830 76 764 q 297 934 208 896 q 486 972 386 972 q 675 934 586 972 q 830 830 764 896 q 934 675 896 764 q 972 486 972 586 m 865 486 q 835 634 865 565 q 754 754 806 703 q 634 835 703 806 q 486 865 565 865 q 338 835 407 865 q 218 754 269 806 q 137 634 167 703 q 107 486 107 565 q 137 338 107 407 q 218 218 167 269 q 338 137 269 167 q 486 107 407 107 q 634 137 565 107 q 754 218 703 167 q 835 338 806 269 q 865 486 865 407 m 654 414 q 647 332 654 369 q 622 267 640 294 q 570 224 603 239 q 486 208 538 208 q 391 231 425 208 q 341 290 357 253 q 322 378 325 328 q 318 486 318 429 q 322 594 318 543 q 341 682 325 644 q 391 742 357 719 q 486 764 425 764 q 570 749 538 764 q 622 706 603 733 q 647 641 640 679 q 654 558 654 603 l 535 558 q 524 627 535 601 q 486 653 513 653 q 458 640 468 653 q 444 603 449 626 q 438 551 439 581 q 438 486 438 521 q 438 422 438 451 q 444 369 439 392 q 458 333 449 346 q 486 319 468 319 q 524 344 513 319 q 535 414 535 369 l 654 414 z "},"−":{"ha":514,"x_min":49,"x_max":465,"o":"m 465 483 l 49 483 l 49 622 l 465 622 l 465 483 z "},"±":{"ha":517,"x_min":49,"x_max":468,"o":"m 49 686 l 189 686 l 189 826 l 328 826 l 328 686 l 468 686 l 468 547 l 328 547 l 328 407 l 189 407 l 189 547 l 49 547 l 49 686 m 49 285 l 468 285 l 468 146 l 49 146 l 49 285 z "},"×":{"ha":493,"x_min":49,"x_max":444,"o":"m 49 356 l 346 653 l 444 554 l 147 258 l 49 356 m 49 554 l 147 653 l 444 356 l 346 258 l 49 554 z "},"‹":{"ha":497,"x_min":49,"x_max":449,"o":"m 350 788 l 449 690 l 147 388 l 49 486 l 350 788 m 147 585 l 449 282 l 350 185 l 49 486 l 147 585 z "},"›":{"ha":497,"x_min":49,"x_max":449,"o":"m 350 388 l 49 690 l 147 788 l 449 486 l 350 388 m 147 185 l 49 282 l 350 585 l 449 486 l 147 185 z "},"«":{"ha":817,"x_min":49,"x_max":768,"o":"m 350 788 l 449 690 l 147 388 l 49 486 l 350 788 m 147 585 l 449 282 l 350 185 l 49 486 l 147 585 m 669 788 l 768 690 l 467 388 l 368 486 l 669 788 m 467 585 l 768 282 l 669 185 l 368 486 l 467 585 z "},"»":{"ha":817,"x_min":49,"x_max":768,"o":"m 669 388 l 368 690 l 467 788 l 768 486 l 669 388 m 467 185 l 368 282 l 669 585 l 768 486 l 467 185 m 350 388 l 49 690 l 147 788 l 449 486 l 350 388 m 147 185 l 49 282 l 350 585 l 449 486 l 147 185 z "},"¡":{"ha":292,"x_min":49,"x_max":243,"o":"m 146 778 q 69 806 90 778 q 49 875 49 835 q 69 944 49 915 q 146 972 90 972 q 222 944 201 972 q 243 875 243 915 q 222 806 243 835 q 146 778 201 778 m 49 0 l 63 708 l 229 708 l 243 0 l 49 0 z "},"¿":{"ha":606,"x_min":49,"x_max":557,"o":"m 49 271 q 65 374 49 331 q 106 449 81 417 q 162 504 131 481 q 224 549 193 528 q 279 587 253 568 q 326 624 306 606 q 358 664 346 643 q 369 708 369 685 l 474 708 q 460 614 474 654 q 426 543 447 574 q 378 489 404 513 q 325 444 351 465 q 276 404 300 424 q 235 364 253 385 q 206 320 217 343 q 194 272 194 297 q 196 231 194 256 q 208 185 197 207 q 240 148 218 164 q 301 132 261 132 q 361 156 339 132 q 394 215 383 181 q 408 289 406 250 q 411 357 411 328 l 411 417 l 557 417 l 557 375 q 548 227 557 296 q 510 108 539 158 q 431 29 482 58 q 296 0 379 0 q 113 67 176 0 q 49 271 49 135 m 421 778 q 369 806 383 778 q 356 875 356 835 q 369 944 356 915 q 421 972 383 972 q 473 944 458 972 q 488 875 488 915 q 473 806 488 835 q 421 778 458 778 z "},"¦":{"ha":236,"x_min":49,"x_max":188,"o":"m 49 347 l 188 347 l 188 -69 l 49 -69 l 49 347 m 49 972 l 188 972 l 188 583 l 49 583 l 49 972 z "},"ˇ":{"ha":417,"x_min":0,"x_max":417,"o":"m 236 808 l 111 808 l 0 972 l 167 972 l 236 808 m 417 972 l 306 808 l 181 808 l 250 972 l 417 972 z "},"Ž":{"ha":461,"x_min":14,"x_max":474,"o":"m 447 972 l 204 132 l 392 132 l 392 0 l 14 0 l 271 840 l 58 840 l 58 972 l 447 972 m 293 1086 l 168 1086 l 57 1250 l 224 1250 l 293 1086 m 474 1250 l 363 1086 l 238 1086 l 307 1250 l 474 1250 z "},"ˆ":{"ha":417,"x_min":0,"x_max":417,"o":"m 0 808 l 111 972 l 236 972 l 167 808 l 0 808 m 181 972 l 306 972 l 417 808 l 250 808 l 181 972 z "},"Â":{"ha":613,"x_min":0,"x_max":613,"o":"m 419 972 l 613 0 l 465 0 l 432 181 l 182 181 l 147 0 l 0 0 l 193 972 l 419 972 m 210 318 l 401 318 l 306 800 l 210 318 m 99 1086 l 210 1250 l 335 1250 l 265 1086 l 99 1086 m 279 1250 l 404 1250 l 515 1086 l 349 1086 l 279 1250 z "},"Û":{"ha":625,"x_min":49,"x_max":576,"o":"m 431 972 l 576 972 l 576 486 q 571 295 576 386 q 540 135 565 204 q 462 26 515 67 q 313 -14 408 -14 q 163 26 217 -14 q 85 135 110 67 q 54 295 60 204 q 49 486 49 386 l 49 972 l 194 972 l 194 486 q 197 361 194 426 q 210 242 199 296 q 246 153 222 188 q 313 118 269 118 q 379 153 356 118 q 415 242 403 188 q 428 361 426 296 q 431 486 431 426 l 431 972 m 108 1086 l 219 1250 l 344 1250 l 275 1086 l 108 1086 m 289 1250 l 414 1250 l 525 1086 l 358 1086 l 289 1250 z "},"Ê":{"ha":414,"x_min":6,"x_max":422,"o":"m 379 972 l 379 840 l 194 840 l 194 560 l 363 560 l 363 428 l 194 428 l 194 132 l 379 132 l 379 0 l 49 0 l 49 972 l 379 972 m 6 1086 l 117 1250 l 242 1250 l 172 1086 l 6 1086 m 186 1250 l 311 1250 l 422 1086 l 256 1086 l 186 1250 z "},"Î":{"ha":243,"x_min":-87,"x_max":329,"o":"m 49 972 l 194 972 l 194 0 l 49 0 l 49 972 m -87 1086 l 24 1250 l 149 1250 l 79 1086 l -87 1086 m 93 1250 l 218 1250 l 329 1086 l 163 1086 l 93 1250 z "},"Ô":{"ha":583,"x_min":28,"x_max":556,"o":"m 292 986 q 441 946 388 986 q 519 837 494 906 q 550 677 544 768 q 556 486 556 586 q 550 295 556 386 q 519 135 544 204 q 441 26 494 67 q 292 -14 388 -14 q 142 26 196 -14 q 64 137 89 67 q 33 299 39 207 q 28 496 28 392 q 33 682 28 593 q 63 838 38 771 q 142 946 89 906 q 292 986 196 986 m 174 486 q 176 361 174 426 q 190 242 178 296 q 225 153 201 188 q 292 118 249 118 q 358 153 335 118 q 394 242 382 188 q 408 361 406 296 q 410 486 410 426 q 408 612 410 547 q 394 731 406 676 q 358 819 382 785 q 292 854 335 854 q 225 819 249 854 q 190 731 201 785 q 176 612 178 676 q 174 486 174 547 m 83 1086 l 194 1250 l 319 1250 l 250 1086 l 83 1086 m 264 1250 l 389 1250 l 500 1086 l 333 1086 l 264 1250 z "},"¤":{"ha":722,"x_min":49,"x_max":674,"o":"m 596 799 l 674 721 l 601 649 q 630 569 622 611 q 638 486 638 528 q 630 403 638 444 q 601 324 622 361 l 674 251 l 596 174 l 524 246 q 444 218 486 226 q 361 210 403 210 q 278 218 319 210 q 199 246 236 226 l 126 174 l 49 251 l 121 324 q 93 403 101 361 q 85 486 85 444 q 93 569 85 528 q 121 649 101 611 l 49 721 l 126 799 l 199 726 q 278 754 236 746 q 361 763 319 763 q 444 754 403 763 q 524 726 486 746 l 596 799 m 361 336 q 473 374 435 336 q 511 486 511 411 q 473 599 511 561 q 361 636 435 636 q 249 598 288 636 q 211 486 211 560 q 249 374 211 413 q 361 336 288 336 z "},"`":{"ha":236,"x_min":0,"x_max":236,"o":"m 236 808 l 111 808 l 0 972 l 167 972 l 236 808 z "},"À":{"ha":613,"x_min":0,"x_max":613,"o":"m 419 972 l 613 0 l 465 0 l 432 181 l 182 181 l 147 0 l 0 0 l 193 972 l 419 972 m 210 318 l 401 318 l 306 800 l 210 318 m 375 1086 l 250 1086 l 139 1250 l 306 1250 l 375 1086 z "},"´":{"ha":236,"x_min":0,"x_max":236,"o":"m 236 972 l 125 808 l 0 808 l 69 972 l 236 972 z "},"Á":{"ha":613,"x_min":0,"x_max":613,"o":"m 419 972 l 613 0 l 465 0 l 432 181 l 182 181 l 147 0 l 0 0 l 193 972 l 419 972 m 210 318 l 401 318 l 306 800 l 210 318 m 489 1250 l 378 1086 l 253 1086 l 322 1250 l 489 1250 z "},"È":{"ha":414,"x_min":49,"x_max":379,"o":"m 379 972 l 379 840 l 194 840 l 194 560 l 363 560 l 363 428 l 194 428 l 194 132 l 379 132 l 379 0 l 49 0 l 49 972 l 379 972 m 332 1086 l 207 1086 l 96 1250 l 263 1250 l 332 1086 z "},"É":{"ha":414,"x_min":49,"x_max":379,"o":"m 379 972 l 379 840 l 194 840 l 194 560 l 363 560 l 363 428 l 194 428 l 194 132 l 379 132 l 379 0 l 49 0 l 49 972 l 379 972 m 353 1250 l 242 1086 l 117 1086 l 186 1250 l 353 1250 z "},"¨":{"ha":400,"x_min":0,"x_max":400,"o":"m 82 972 q 147 949 129 972 q 164 890 164 925 q 147 832 164 856 q 82 808 129 808 q 17 832 35 808 q 0 890 0 856 q 17 949 0 925 q 82 972 35 972 m 318 972 q 383 949 365 972 q 400 890 400 925 q 383 832 400 856 q 318 808 365 808 q 253 832 271 808 q 236 890 236 856 q 253 949 236 925 q 318 972 271 972 z "},"Ö":{"ha":583,"x_min":28,"x_max":556,"o":"m 292 986 q 441 946 388 986 q 519 837 494 906 q 550 677 544 768 q 556 486 556 586 q 550 295 556 386 q 519 135 544 204 q 441 26 494 67 q 292 -14 388 -14 q 142 26 196 -14 q 64 137 89 67 q 33 299 39 207 q 28 496 28 392 q 33 682 28 593 q 63 838 38 771 q 142 946 89 906 q 292 986 196 986 m 174 486 q 176 361 174 426 q 190 242 178 296 q 225 153 201 188 q 292 118 249 118 q 358 153 335 118 q 394 242 382 188 q 408 361 406 296 q 410 486 410 426 q 408 612 410 547 q 394 731 406 676 q 358 819 382 785 q 292 854 335 854 q 225 819 249 854 q 190 731 201 785 q 176 612 178 676 q 174 486 174 547 m 174 1250 q 238 1226 221 1250 q 256 1168 256 1203 q 238 1110 256 1133 q 174 1086 221 1086 q 109 1110 126 1086 q 92 1168 92 1133 q 109 1226 92 1203 q 174 1250 126 1250 m 410 1250 q 474 1226 457 1250 q 492 1168 492 1203 q 474 1110 492 1133 q 410 1086 457 1086 q 345 1110 363 1086 q 328 1168 328 1133 q 345 1226 328 1203 q 410 1250 363 1250 z "},"Ë":{"ha":414,"x_min":14,"x_max":414,"o":"m 379 972 l 379 840 l 194 840 l 194 560 l 363 560 l 363 428 l 194 428 l 194 132 l 379 132 l 379 0 l 49 0 l 49 972 l 379 972 m 96 1250 q 160 1226 143 1250 q 178 1168 178 1203 q 160 1110 178 1133 q 96 1086 143 1086 q 31 1110 49 1086 q 14 1168 14 1133 q 31 1226 14 1203 q 96 1250 49 1250 m 332 1250 q 397 1226 379 1250 q 414 1168 414 1203 q 397 1110 414 1133 q 332 1086 379 1086 q 267 1110 285 1086 q 250 1168 250 1133 q 267 1226 250 1203 q 332 1250 285 1250 z "},"Ä":{"ha":613,"x_min":0,"x_max":613,"o":"m 419 972 l 613 0 l 465 0 l 432 181 l 182 181 l 147 0 l 0 0 l 193 972 l 419 972 m 210 318 l 401 318 l 306 800 l 210 318 m 189 1250 q 253 1226 236 1250 q 271 1168 271 1203 q 253 1110 271 1133 q 189 1086 236 1086 q 124 1110 142 1086 q 107 1168 107 1133 q 124 1226 107 1203 q 189 1250 142 1250 m 425 1250 q 490 1226 472 1250 q 507 1168 507 1203 q 490 1110 507 1133 q 425 1086 472 1086 q 360 1110 378 1086 q 343 1168 343 1133 q 360 1226 343 1203 q 425 1250 378 1250 z "},"Ï":{"ha":243,"x_min":-79,"x_max":321,"o":"m 49 972 l 194 972 l 194 0 l 49 0 l 49 972 m 3 1250 q 67 1226 50 1250 q 85 1168 85 1203 q 67 1110 85 1133 q 3 1086 50 1086 q -62 1110 -44 1086 q -79 1168 -79 1133 q -62 1226 -79 1203 q 3 1250 -44 1250 m 239 1250 q 303 1226 286 1250 q 321 1168 321 1203 q 303 1110 321 1133 q 239 1086 286 1086 q 174 1110 192 1086 q 157 1168 157 1133 q 174 1226 157 1203 q 239 1250 192 1250 z "},"Ü":{"ha":625,"x_min":49,"x_max":576,"o":"m 431 972 l 576 972 l 576 486 q 571 295 576 386 q 540 135 565 204 q 462 26 515 67 q 313 -14 408 -14 q 163 26 217 -14 q 85 135 110 67 q 54 295 60 204 q 49 486 49 386 l 49 972 l 194 972 l 194 486 q 197 361 194 426 q 210 242 199 296 q 246 153 222 188 q 313 118 269 118 q 379 153 356 118 q 415 242 403 188 q 428 361 426 296 q 431 486 431 426 l 431 972 m 194 1250 q 259 1226 242 1250 q 276 1168 276 1203 q 259 1110 276 1133 q 194 1086 242 1086 q 130 1110 147 1086 q 113 1168 113 1133 q 130 1226 113 1203 q 194 1250 147 1250 m 431 1250 q 495 1226 478 1250 q 513 1168 513 1203 q 495 1110 513 1133 q 431 1086 478 1086 q 366 1110 383 1086 q 349 1168 349 1133 q 366 1226 349 1203 q 431 1250 383 1250 z "},"Ÿ":{"ha":625,"x_min":49,"x_max":576,"o":"m 431 972 l 576 972 l 576 778 q 569 611 576 690 q 542 469 563 532 q 485 364 522 407 q 386 304 447 321 l 386 304 l 386 0 l 240 0 l 240 304 l 240 304 q 142 364 179 321 q 83 469 104 407 q 56 611 63 532 q 49 778 49 690 l 49 972 l 194 972 l 194 778 q 197 655 194 718 q 210 541 199 592 q 246 458 222 490 q 313 425 269 425 q 379 458 356 425 q 415 541 403 490 q 428 655 426 592 q 431 778 431 718 l 431 972 m 194 1250 q 259 1226 242 1250 q 276 1168 276 1203 q 259 1110 276 1133 q 194 1086 242 1086 q 130 1110 147 1086 q 113 1168 113 1133 q 130 1226 113 1203 q 194 1250 147 1250 m 431 1250 q 495 1226 478 1250 q 513 1168 513 1203 q 495 1110 513 1133 q 431 1086 478 1086 q 366 1110 383 1086 q 349 1168 349 1133 q 366 1226 349 1203 q 431 1250 383 1250 z "},"ı":{"ha":250,"x_min":49,"x_max":201,"o":"m 49 972 l 201 972 l 201 0 l 49 0 l 49 972 z "},"Ò":{"ha":583,"x_min":28,"x_max":556,"o":"m 292 986 q 441 946 388 986 q 519 837 494 906 q 550 677 544 768 q 556 486 556 586 q 550 295 556 386 q 519 135 544 204 q 441 26 494 67 q 292 -14 388 -14 q 142 26 196 -14 q 64 137 89 67 q 33 299 39 207 q 28 496 28 392 q 33 682 28 593 q 63 838 38 771 q 142 946 89 906 q 292 986 196 986 m 174 486 q 176 361 174 426 q 190 242 178 296 q 225 153 201 188 q 292 118 249 118 q 358 153 335 118 q 394 242 382 188 q 408 361 406 296 q 410 486 410 426 q 408 612 410 547 q 394 731 406 676 q 358 819 382 785 q 292 854 335 854 q 225 819 249 854 q 190 731 201 785 q 176 612 178 676 q 174 486 174 547 m 386 1086 l 261 1086 l 150 1250 l 317 1250 l 386 1086 z "},"Ó":{"ha":583,"x_min":28,"x_max":556,"o":"m 292 986 q 441 946 388 986 q 519 837 494 906 q 550 677 544 768 q 556 486 556 586 q 550 295 556 386 q 519 135 544 204 q 441 26 494 67 q 292 -14 388 -14 q 142 26 196 -14 q 64 137 89 67 q 33 299 39 207 q 28 496 28 392 q 33 682 28 593 q 63 838 38 771 q 142 946 89 906 q 292 986 196 986 m 174 486 q 176 361 174 426 q 190 242 178 296 q 225 153 201 188 q 292 118 249 118 q 358 153 335 118 q 394 242 382 188 q 408 361 406 296 q 410 486 410 426 q 408 612 410 547 q 394 731 406 676 q 358 819 382 785 q 292 854 335 854 q 225 819 249 854 q 190 731 201 785 q 176 612 178 676 q 174 486 174 547 m 483 1250 l 372 1086 l 247 1086 l 317 1250 l 483 1250 z "},"Õ":{"ha":583,"x_min":28,"x_max":556,"o":"m 292 986 q 441 946 388 986 q 519 837 494 906 q 550 677 544 768 q 556 486 556 586 q 550 295 556 386 q 519 135 544 204 q 441 26 494 67 q 292 -14 388 -14 q 142 26 196 -14 q 64 137 89 67 q 33 299 39 207 q 28 496 28 392 q 33 682 28 593 q 63 838 38 771 q 142 946 89 906 q 292 986 196 986 m 174 486 q 176 361 174 426 q 190 242 178 296 q 225 153 201 188 q 292 118 249 118 q 358 153 335 118 q 394 242 382 188 q 408 361 406 296 q 410 486 410 426 q 408 612 410 547 q 394 731 406 676 q 358 819 382 785 q 292 854 335 854 q 225 819 249 854 q 190 731 201 785 q 176 612 178 676 q 174 486 174 547 m 292 1219 q 330 1209 310 1214 q 369 1204 350 1204 q 401 1209 386 1204 q 429 1226 417 1214 l 429 1101 q 401 1084 417 1089 q 369 1079 386 1079 q 330 1084 350 1079 q 292 1094 310 1089 q 254 1105 274 1100 q 215 1110 235 1110 q 153 1086 176 1110 l 153 1213 q 181 1230 165 1225 q 213 1235 196 1235 q 252 1230 232 1235 q 292 1219 272 1225 z "},"Ã":{"ha":613,"x_min":0,"x_max":613,"o":"m 419 972 l 613 0 l 465 0 l 432 181 l 182 181 l 147 0 l 0 0 l 193 972 l 419 972 m 210 318 l 401 318 l 306 800 l 210 318 m 306 1219 q 344 1209 324 1214 q 383 1204 364 1204 q 415 1209 400 1204 q 443 1226 431 1214 l 443 1101 q 415 1084 431 1089 q 383 1079 400 1079 q 344 1084 364 1079 q 306 1094 324 1089 q 268 1105 288 1100 q 229 1110 249 1110 q 167 1086 190 1110 l 167 1213 q 194 1230 179 1225 q 226 1235 210 1235 q 266 1230 246 1235 q 306 1219 286 1225 z "},"Ñ":{"ha":644,"x_min":49,"x_max":596,"o":"m 579 972 l 579 0 l 596 0 l 431 0 l 194 617 l 194 0 l 49 0 l 49 972 l 196 972 l 433 369 l 433 972 l 579 972 m 324 1219 q 362 1209 342 1214 q 401 1204 382 1204 q 433 1209 418 1204 q 461 1226 449 1214 l 461 1101 q 433 1084 449 1089 q 401 1079 418 1079 q 362 1084 382 1079 q 324 1094 342 1089 q 286 1105 306 1100 q 247 1110 267 1110 q 185 1086 208 1110 l 185 1213 q 213 1230 197 1225 q 244 1235 228 1235 q 284 1230 264 1235 q 324 1219 304 1225 z "},"Ì":{"ha":243,"x_min":-62,"x_max":194,"o":"m 49 972 l 194 972 l 194 0 l 49 0 l 49 972 m 174 1086 l 49 1086 l -62 1250 l 104 1250 l 174 1086 z "},"Í":{"ha":243,"x_min":49,"x_max":293,"o":"m 49 972 l 194 972 l 194 0 l 49 0 l 49 972 m 293 1250 l 182 1086 l 57 1086 l 126 1250 l 293 1250 z "},"Š":{"ha":571,"x_min":28,"x_max":550,"o":"m 174 721 q 190 649 174 679 q 236 590 206 618 q 310 533 267 563 q 410 464 354 504 q 469 419 443 440 q 513 372 494 397 q 540 315 531 347 q 550 240 550 283 q 480 53 550 119 q 292 -14 410 -14 q 94 76 158 -14 q 29 353 29 165 l 175 353 q 183 265 175 307 q 208 190 192 222 q 248 137 224 157 q 306 115 272 117 q 374 138 344 113 q 404 210 404 163 q 393 258 404 238 q 363 297 382 278 q 320 333 344 315 q 268 371 296 350 q 158 459 204 419 q 83 540 113 499 q 41 632 54 582 q 28 751 28 682 q 92 923 28 860 q 276 986 157 986 q 474 897 411 986 q 536 611 536 807 l 536 569 l 390 569 l 390 600 l 390 629 q 363 797 390 739 q 279 854 335 854 q 203 817 233 854 q 174 721 174 781 m 317 1086 l 192 1086 l 81 1250 l 247 1250 l 317 1086 m 497 1250 l 386 1086 l 261 1086 l 331 1250 l 497 1250 z "},"Ù":{"ha":625,"x_min":49,"x_max":576,"o":"m 431 972 l 576 972 l 576 486 q 571 295 576 386 q 540 135 565 204 q 462 26 515 67 q 313 -14 408 -14 q 163 26 217 -14 q 85 135 110 67 q 54 295 60 204 q 49 486 49 386 l 49 972 l 194 972 l 194 486 q 197 361 194 426 q 210 242 199 296 q 246 153 222 188 q 313 118 269 118 q 379 153 356 118 q 415 242 403 188 q 428 361 426 296 q 431 486 431 426 l 431 972 m 383 1086 l 258 1086 l 147 1250 l 314 1250 l 383 1086 z "},"Ú":{"ha":625,"x_min":49,"x_max":576,"o":"m 431 972 l 576 972 l 576 486 q 571 295 576 386 q 540 135 565 204 q 462 26 515 67 q 313 -14 408 -14 q 163 26 217 -14 q 85 135 110 67 q 54 295 60 204 q 49 486 49 386 l 49 972 l 194 972 l 194 486 q 197 361 194 426 q 210 242 199 296 q 246 153 222 188 q 313 118 269 118 q 379 153 356 118 q 415 242 403 188 q 428 361 426 296 q 431 486 431 426 l 431 972 m 471 1250 l 360 1086 l 235 1086 l 304 1250 l 471 1250 z "},"Ł":{"ha":508,"x_min":49,"x_max":474,"o":"m 283 972 l 283 132 l 474 132 l 474 0 l 138 0 l 138 972 l 283 972 m 465 490 l 49 490 l 49 622 l 465 622 l 465 490 z "},"Ý":{"ha":625,"x_min":49,"x_max":576,"o":"m 431 972 l 576 972 l 576 778 q 569 611 576 690 q 542 469 563 532 q 485 364 522 407 q 386 304 447 321 l 386 304 l 386 0 l 240 0 l 240 304 l 240 304 q 142 364 179 321 q 83 469 104 407 q 56 611 63 532 q 49 778 49 690 l 49 972 l 194 972 l 194 778 q 197 655 194 718 q 210 541 199 592 q 246 458 222 490 q 313 425 269 425 q 379 458 356 425 q 415 541 403 490 q 428 655 426 592 q 431 778 431 718 l 431 972 m 482 1250 l 371 1086 l 246 1086 l 315 1250 l 482 1250 z "},"a":{"ha":611,"x_min":-1,"x_max":611,"o":"m 418 972 l 611 0 l 464 0 l 431 181 l 181 181 l 146 0 l -1 0 l 192 972 l 418 972 m 208 318 l 400 318 l 304 800 l 208 318 z "},"b":{"ha":596,"x_min":49,"x_max":568,"o":"m 289 972 q 438 949 385 972 q 517 887 492 926 q 549 794 543 847 q 554 681 554 742 q 551 613 554 644 q 540 557 549 582 q 513 516 531 532 q 464 494 494 500 l 465 494 q 517 472 497 490 q 548 427 536 454 q 564 365 560 400 q 568 292 568 331 q 563 178 568 232 q 531 85 557 125 q 452 23 506 46 q 303 0 399 0 l 49 0 l 49 972 l 289 972 m 194 535 l 290 535 q 357 550 333 535 q 392 588 381 565 q 406 635 404 610 q 408 681 408 660 q 406 728 408 701 q 392 781 403 756 q 356 823 381 806 q 289 840 332 840 l 194 840 l 194 535 m 194 132 l 303 132 q 376 149 351 132 q 412 192 401 167 q 422 244 422 217 q 422 292 422 271 q 419 332 422 313 q 406 367 417 351 q 370 393 394 383 q 303 403 346 403 l 194 403 l 194 132 z "},"c":{"ha":582,"x_min":28,"x_max":554,"o":"m 554 358 q 543 214 554 282 q 503 95 532 146 q 423 15 474 44 q 292 -14 372 -14 q 142 26 196 -14 q 64 135 89 67 q 33 295 39 204 q 28 486 28 386 q 33 677 28 586 q 63 837 38 768 q 142 946 89 906 q 292 986 196 986 q 423 957 372 986 q 503 878 474 928 q 543 760 532 828 q 554 614 554 692 l 408 614 q 401 693 408 651 q 381 771 394 735 q 344 831 367 807 q 292 854 322 854 q 225 819 249 854 q 190 731 201 785 q 176 612 178 676 q 174 486 174 547 q 176 363 174 426 q 190 249 178 300 q 225 165 201 197 q 292 132 249 132 q 344 153 322 132 q 381 208 367 175 q 401 281 394 240 q 408 358 408 321 l 554 358 z "},"d":{"ha":585,"x_min":49,"x_max":557,"o":"m 293 972 q 445 934 392 972 q 524 830 499 896 q 553 675 549 764 q 557 486 557 586 q 553 297 557 386 q 524 142 549 208 q 445 38 499 76 q 293 0 392 0 l 49 0 l 49 972 l 293 972 m 293 132 q 354 165 333 132 q 385 249 375 197 q 397 363 396 300 q 399 486 399 426 q 397 610 399 547 q 385 724 396 672 q 354 808 375 775 q 293 840 333 840 l 194 840 l 194 132 l 293 132 z "},"e":{"ha":444,"x_min":49,"x_max":379,"o":"m 379 972 l 379 840 l 194 840 l 194 560 l 363 560 l 363 428 l 194 428 l 194 132 l 379 132 l 379 0 l 49 0 l 49 972 l 379 972 z "},"f":{"ha":444,"x_min":49,"x_max":379,"o":"m 379 972 l 379 840 l 194 840 l 194 507 l 351 507 l 351 375 l 194 375 l 194 0 l 49 0 l 49 972 l 379 972 z "},"g":{"ha":569,"x_min":28,"x_max":542,"o":"m 333 335 l 333 467 l 542 467 l 542 404 q 536 263 542 336 q 506 128 531 189 q 431 26 481 67 q 292 -14 381 -14 q 142 26 196 -14 q 64 135 89 67 q 33 295 39 204 q 28 486 28 386 q 33 677 28 586 q 63 837 38 768 q 142 946 89 906 q 292 986 196 986 q 423 955 374 986 q 498 870 472 924 q 532 745 524 817 q 542 592 540 674 l 396 592 q 392 678 396 632 q 378 764 389 725 q 347 828 367 803 q 292 854 326 854 q 225 819 249 854 q 190 731 201 785 q 176 612 178 676 q 174 486 174 547 q 176 361 174 426 q 190 242 178 296 q 225 153 201 188 q 292 118 249 118 q 340 141 321 118 q 371 197 360 164 q 387 268 382 231 q 393 335 392 306 l 333 335 z "},"h":{"ha":592,"x_min":49,"x_max":543,"o":"m 543 972 l 543 0 l 397 0 l 397 360 l 194 360 l 194 0 l 49 0 l 49 972 l 194 972 l 194 492 l 397 492 l 397 972 l 543 972 z "},"i":{"ha":243,"x_min":49,"x_max":194,"o":"m 49 972 l 194 972 l 194 0 l 49 0 l 49 972 z "},"j":{"ha":438,"x_min":44,"x_max":389,"o":"m 389 472 q 380 265 389 356 q 342 112 371 174 q 262 18 314 50 q 124 -14 210 -14 q 94 -13 108 -14 q 69 -10 81 -12 q 44 -6 56 -8 l 44 126 l 44 126 q 126 133 90 126 q 189 172 163 139 q 229 274 215 204 q 243 471 243 343 l 243 972 l 389 972 l 389 472 z "},"k":{"ha":543,"x_min":49,"x_max":531,"o":"m 194 972 l 194 508 l 242 508 l 354 972 l 501 972 l 371 486 l 372 486 l 531 0 l 382 0 l 242 418 l 194 418 l 194 0 l 49 0 l 49 972 l 194 972 z "},"l":{"ha":413,"x_min":49,"x_max":385,"o":"m 194 972 l 194 132 l 385 132 l 385 0 l 49 0 l 49 972 l 194 972 z "},"m":{"ha":871,"x_min":49,"x_max":822,"o":"m 822 972 l 822 0 l 676 0 l 676 683 l 488 0 l 382 0 l 194 683 l 194 0 l 49 0 l 49 972 l 271 972 l 435 328 l 597 972 l 822 972 z "},"n":{"ha":628,"x_min":49,"x_max":596,"o":"m 579 972 l 579 0 l 596 0 l 431 0 l 194 617 l 194 0 l 49 0 l 49 972 l 196 972 l 433 369 l 433 972 l 579 972 z "},"o":{"ha":583,"x_min":28,"x_max":556,"o":"m 292 986 q 441 946 388 986 q 519 837 494 906 q 550 677 544 768 q 556 486 556 586 q 550 295 556 386 q 519 135 544 204 q 441 26 494 67 q 292 -14 388 -14 q 142 26 196 -14 q 64 137 89 67 q 33 299 39 207 q 28 496 28 392 q 33 682 28 593 q 63 838 38 771 q 142 946 89 906 q 292 986 196 986 m 174 486 q 176 361 174 426 q 190 242 178 296 q 225 153 201 188 q 292 118 249 118 q 358 153 335 118 q 394 242 382 188 q 408 361 406 296 q 410 486 410 426 q 408 612 410 547 q 394 731 406 676 q 358 819 382 785 q 292 854 335 854 q 225 819 249 854 q 190 731 201 785 q 176 612 178 676 q 174 486 174 547 z "},"p":{"ha":568,"x_min":49,"x_max":533,"o":"m 286 972 q 422 945 372 972 q 496 871 471 918 q 527 760 521 824 q 533 624 533 697 l 533 582 q 527 444 533 508 q 496 334 521 381 q 422 260 471 288 q 286 233 372 233 l 194 233 l 194 0 l 49 0 l 49 972 l 286 972 m 286 365 q 341 386 321 365 q 372 441 361 407 q 385 517 382 475 q 388 603 388 560 q 385 688 388 646 q 372 765 382 731 q 341 819 361 799 q 286 840 321 840 l 194 840 l 194 365 l 286 365 z "},"q":{"ha":589,"x_min":28,"x_max":557,"o":"m 293 -14 q 144 26 197 -14 q 65 135 90 67 q 33 295 39 204 q 28 486 28 386 q 33 678 28 588 q 63 837 38 768 q 142 946 89 906 q 293 986 196 986 q 442 946 389 986 q 520 837 494 906 q 551 678 546 768 q 557 486 557 588 q 555 342 557 413 q 543 213 553 272 q 513 106 533 153 q 457 33 493 60 l 528 -18 l 424 -122 l 315 -14 l 293 -14 m 174 486 q 176 361 174 426 q 190 242 178 296 q 226 153 201 188 q 293 118 250 118 q 360 153 336 118 q 395 242 383 188 q 409 361 407 296 q 411 486 411 426 q 409 611 411 546 q 395 731 407 676 q 360 819 383 785 q 293 854 336 854 q 226 819 250 854 q 190 731 201 785 q 176 611 178 676 q 174 486 174 546 z "},"r":{"ha":571,"x_min":49,"x_max":557,"o":"m 49 972 l 268 972 q 417 946 364 972 q 497 874 471 919 q 528 768 522 829 q 533 638 533 707 q 527 545 533 594 q 508 454 521 496 q 472 385 494 413 q 417 358 450 358 q 472 319 449 358 q 513 223 496 279 q 541 106 531 167 q 557 0 551 44 l 410 0 q 394 101 404 49 q 365 199 383 154 q 322 274 347 244 q 261 303 297 303 l 194 303 l 194 0 l 49 0 l 49 972 m 268 435 q 335 456 311 435 q 371 507 360 476 q 385 573 382 538 q 388 638 388 608 q 385 702 388 667 q 371 768 382 738 q 335 819 360 799 q 268 840 311 840 l 194 840 l 194 435 l 268 435 z "},"s":{"ha":571,"x_min":28,"x_max":550,"o":"m 174 721 q 190 649 174 679 q 236 590 206 618 q 310 533 267 563 q 410 464 354 504 q 469 419 443 440 q 513 372 494 397 q 540 315 531 347 q 550 240 550 283 q 480 53 550 119 q 292 -14 410 -14 q 94 76 158 -14 q 29 353 29 165 l 175 353 q 183 265 175 307 q 208 190 192 222 q 248 137 224 157 q 306 115 272 117 q 374 138 344 113 q 404 210 404 163 q 393 258 404 238 q 363 297 382 278 q 320 333 344 315 q 268 371 296 350 q 158 459 204 419 q 83 540 113 499 q 41 632 54 582 q 28 751 28 682 q 92 923 28 860 q 276 986 157 986 q 474 897 411 986 q 536 611 536 807 l 536 569 l 390 569 l 390 600 l 390 629 q 363 797 390 739 q 279 854 335 854 q 203 817 233 854 q 174 721 174 781 z "},"t":{"ha":492,"x_min":14,"x_max":478,"o":"m 478 972 l 478 840 l 318 840 l 318 0 l 172 0 l 172 840 l 14 840 l 14 972 l 478 972 z "},"u":{"ha":625,"x_min":49,"x_max":576,"o":"m 431 972 l 576 972 l 576 486 q 571 295 576 386 q 540 135 565 204 q 462 26 515 67 q 313 -14 408 -14 q 163 26 217 -14 q 85 135 110 67 q 54 295 60 204 q 49 486 49 386 l 49 972 l 194 972 l 194 486 q 197 361 194 426 q 210 242 199 296 q 246 153 222 188 q 313 118 269 118 q 379 153 356 118 q 415 242 403 188 q 428 361 426 296 q 431 486 431 426 l 431 972 z "},"v":{"ha":539,"x_min":-1,"x_max":539,"o":"m 539 972 l 404 0 l 133 0 l -1 972 l 146 972 l 268 153 l 392 972 l 539 972 z "},"w":{"ha":881,"x_min":-1,"x_max":881,"o":"m 881 972 l 758 0 l 525 0 l 439 657 l 354 0 l 121 0 l -1 972 l 146 972 l 233 190 l 372 972 l 506 972 l 644 190 l 733 972 l 881 972 z "},"x":{"ha":563,"x_min":-3,"x_max":564,"o":"m 550 972 l 397 503 l 564 0 l 415 0 l 281 432 l 281 432 l 146 0 l -3 0 l 164 503 l 11 972 l 160 972 l 281 574 l 281 574 l 401 972 l 550 972 z "},"y":{"ha":625,"x_min":49,"x_max":576,"o":"m 431 972 l 576 972 l 576 778 q 569 611 576 690 q 542 469 563 532 q 485 364 522 407 q 386 304 447 321 l 386 304 l 386 0 l 240 0 l 240 304 l 240 304 q 142 364 179 321 q 83 469 104 407 q 56 611 63 532 q 49 778 49 690 l 49 972 l 194 972 l 194 778 q 197 655 194 718 q 210 541 199 592 q 246 458 222 490 q 313 425 269 425 q 379 458 356 425 q 415 541 403 490 q 428 655 426 592 q 431 778 431 718 l 431 972 z "},"z":{"ha":461,"x_min":14,"x_max":447,"o":"m 447 972 l 204 132 l 392 132 l 392 0 l 14 0 l 271 840 l 58 840 l 58 972 l 447 972 z "},"Ø":{"ha":646,"x_min":28,"x_max":556,"o":"m 292 986 q 441 946 388 986 q 519 837 494 906 q 550 677 544 768 q 556 486 556 586 q 550 295 556 386 q 519 135 544 204 q 441 26 494 67 q 292 -14 388 -14 q 142 26 196 -14 q 64 137 89 67 q 33 299 39 207 q 28 496 28 392 q 33 682 28 593 q 63 838 38 771 q 142 946 89 906 q 292 986 196 986 m 174 486 q 176 361 174 426 q 190 242 178 296 q 225 153 201 188 q 292 118 249 118 q 358 153 335 118 q 394 242 382 188 q 408 361 406 296 q 410 486 410 426 q 408 612 410 547 q 394 731 406 676 q 358 819 382 785 q 292 854 335 854 q 225 819 249 854 q 190 731 201 785 q 176 612 178 676 q 174 486 174 547 m 379 1000 l 518 1000 l 268 -28 l 129 -28 l 379 1000 z "},"Ð":{"ha":647,"x_min":-21,"x_max":557,"o":"m 293 972 q 445 934 392 972 q 524 830 499 896 q 553 675 549 764 q 557 486 557 586 q 553 297 557 386 q 524 142 549 208 q 445 38 499 76 q 293 0 392 0 l 49 0 l 49 972 l 293 972 m 293 132 q 354 165 333 132 q 385 249 375 197 q 397 363 396 300 q 399 486 399 426 q 397 610 399 547 q 385 724 396 672 q 354 808 375 775 q 293 840 333 840 l 194 840 l 194 132 l 293 132 m 333 476 l -21 476 l -21 608 l 333 608 l 333 476 z "},"Đ":{"ha":647,"x_min":-21,"x_max":557,"o":"m 293 972 q 445 934 392 972 q 524 830 499 896 q 553 675 549 764 q 557 486 557 586 q 553 297 557 386 q 524 142 549 208 q 445 38 499 76 q 293 0 392 0 l 49 0 l 49 972 l 293 972 m 293 132 q 354 165 333 132 q 385 249 375 197 q 397 363 396 300 q 399 486 399 426 q 397 610 399 547 q 385 724 396 672 q 354 808 375 775 q 293 840 333 840 l 194 840 l 194 132 l 293 132 m 333 476 l -21 476 l -21 608 l 333 608 l 333 476 z "},"à":{"ha":613,"x_min":0,"x_max":613,"o":"m 419 972 l 613 0 l 465 0 l 432 181 l 182 181 l 147 0 l 0 0 l 193 972 l 419 972 m 210 318 l 401 318 l 306 800 l 210 318 m 393 1086 l 268 1086 l 157 1250 l 324 1250 l 393 1086 z "},"á":{"ha":613,"x_min":0,"x_max":613,"o":"m 419 972 l 613 0 l 465 0 l 432 181 l 182 181 l 147 0 l 0 0 l 193 972 l 419 972 m 210 318 l 401 318 l 306 800 l 210 318 m 513 1250 l 401 1086 l 276 1086 l 346 1250 l 513 1250 z "},"â":{"ha":613,"x_min":0,"x_max":613,"o":"m 419 972 l 613 0 l 465 0 l 432 181 l 182 181 l 147 0 l 0 0 l 193 972 l 419 972 m 210 318 l 401 318 l 306 800 l 210 318 m 99 1086 l 210 1250 l 335 1250 l 265 1086 l 99 1086 m 279 1250 l 404 1250 l 515 1086 l 349 1086 l 279 1250 z "},"ã":{"ha":613,"x_min":0,"x_max":613,"o":"m 419 972 l 613 0 l 465 0 l 432 181 l 182 181 l 147 0 l 0 0 l 193 972 l 419 972 m 210 318 l 401 318 l 306 800 l 210 318 m 307 1219 q 345 1209 325 1214 q 385 1204 365 1204 q 417 1209 401 1204 q 444 1226 432 1214 l 444 1101 q 417 1084 432 1089 q 385 1079 401 1079 q 345 1084 365 1079 q 307 1094 325 1089 q 269 1105 289 1100 q 231 1110 250 1110 q 168 1086 192 1110 l 168 1213 q 196 1230 181 1225 q 228 1235 211 1235 q 267 1230 247 1235 q 307 1219 288 1225 z "},"ä":{"ha":613,"x_min":0,"x_max":613,"o":"m 419 972 l 613 0 l 465 0 l 432 181 l 182 181 l 147 0 l 0 0 l 193 972 l 419 972 m 210 318 l 401 318 l 306 800 l 210 318 m 189 1250 q 253 1226 236 1250 q 271 1168 271 1203 q 253 1110 271 1133 q 189 1086 236 1086 q 124 1110 142 1086 q 107 1168 107 1133 q 124 1226 107 1203 q 189 1250 142 1250 m 425 1250 q 490 1226 472 1250 q 507 1168 507 1203 q 490 1110 507 1133 q 425 1086 472 1086 q 360 1110 378 1086 q 343 1168 343 1133 q 360 1226 343 1203 q 425 1250 378 1250 z "},"è":{"ha":414,"x_min":49,"x_max":379,"o":"m 379 972 l 379 840 l 194 840 l 194 560 l 363 560 l 363 428 l 194 428 l 194 132 l 379 132 l 379 0 l 49 0 l 49 972 l 379 972 m 285 1086 l 160 1086 l 49 1250 l 215 1250 l 285 1086 z "},"é":{"ha":414,"x_min":49,"x_max":379,"o":"m 379 972 l 379 840 l 194 840 l 194 560 l 363 560 l 363 428 l 194 428 l 194 132 l 379 132 l 379 0 l 49 0 l 49 972 l 379 972 m 353 1250 l 242 1086 l 117 1086 l 186 1250 l 353 1250 z "},"ê":{"ha":414,"x_min":0,"x_max":417,"o":"m 379 972 l 379 840 l 194 840 l 194 560 l 363 560 l 363 428 l 194 428 l 194 132 l 379 132 l 379 0 l 49 0 l 49 972 l 379 972 m 0 1086 l 111 1250 l 236 1250 l 167 1086 l 0 1086 m 181 1250 l 306 1250 l 417 1086 l 250 1086 l 181 1250 z "},"ë":{"ha":414,"x_min":0,"x_max":400,"o":"m 379 972 l 379 840 l 194 840 l 194 560 l 363 560 l 363 428 l 194 428 l 194 132 l 379 132 l 379 0 l 49 0 l 49 972 l 379 972 m 82 1250 q 147 1226 129 1250 q 164 1168 164 1203 q 147 1110 164 1133 q 82 1086 129 1086 q 17 1110 35 1086 q 0 1168 0 1133 q 17 1226 0 1203 q 82 1250 35 1250 m 318 1250 q 383 1226 365 1250 q 400 1168 400 1203 q 383 1110 400 1133 q 318 1086 365 1086 q 253 1110 271 1086 q 236 1168 236 1133 q 253 1226 236 1203 q 318 1250 271 1250 z "},"ì":{"ha":250,"x_min":-8,"x_max":228,"o":"m 49 972 l 201 972 l 201 0 l 49 0 l 49 972 m 228 1086 l 103 1086 l -8 1250 l 158 1250 l 228 1086 z "},"í":{"ha":250,"x_min":49,"x_max":325,"o":"m 49 972 l 201 972 l 201 0 l 49 0 l 49 972 m 325 1222 l 214 1058 l 89 1058 l 158 1222 l 325 1222 z "},"î":{"ha":250,"x_min":-71,"x_max":346,"o":"m 49 972 l 201 972 l 201 0 l 49 0 l 49 972 m -71 1044 l 40 1208 l 165 1208 l 96 1044 l -71 1044 m 110 1208 l 235 1208 l 346 1044 l 179 1044 l 110 1208 z "},"ï":{"ha":250,"x_min":-47,"x_max":353,"o":"m 49 972 l 201 972 l 201 0 l 49 0 l 49 972 m 35 1250 q 99 1226 82 1250 q 117 1168 117 1203 q 99 1110 117 1133 q 35 1086 82 1086 q -30 1110 -12 1086 q -47 1168 -47 1133 q -30 1226 -47 1203 q 35 1250 -12 1250 m 271 1250 q 335 1226 318 1250 q 353 1168 353 1203 q 335 1110 353 1133 q 271 1086 318 1086 q 206 1110 224 1086 q 189 1168 189 1133 q 206 1226 189 1203 q 271 1250 224 1250 z "},"ł":{"ha":475,"x_min":-40,"x_max":385,"o":"m 194 972 l 194 132 l 385 132 l 385 0 l 49 0 l 49 972 l 194 972 m 376 518 l -40 518 l -40 650 l 376 650 l 376 518 z "},"ñ":{"ha":644,"x_min":49,"x_max":596,"o":"m 579 972 l 579 0 l 596 0 l 431 0 l 194 617 l 194 0 l 49 0 l 49 972 l 196 972 l 433 369 l 433 972 l 579 972 m 346 1219 q 384 1209 364 1214 q 424 1204 404 1204 q 456 1209 440 1204 q 483 1226 471 1214 l 483 1101 q 456 1084 471 1089 q 424 1079 440 1079 q 384 1084 404 1079 q 346 1094 364 1089 q 308 1105 328 1100 q 269 1110 289 1110 q 207 1086 231 1110 l 207 1213 q 235 1230 219 1225 q 267 1235 250 1235 q 306 1230 286 1235 q 346 1219 326 1225 z "},"ò":{"ha":583,"x_min":28,"x_max":556,"o":"m 292 986 q 441 946 388 986 q 519 837 494 906 q 550 677 544 768 q 556 486 556 586 q 550 295 556 386 q 519 135 544 204 q 441 26 494 67 q 292 -14 388 -14 q 142 26 196 -14 q 64 137 89 67 q 33 299 39 207 q 28 496 28 392 q 33 682 28 593 q 63 838 38 771 q 142 946 89 906 q 292 986 196 986 m 174 486 q 176 361 174 426 q 190 242 178 296 q 225 153 201 188 q 292 118 249 118 q 358 153 335 118 q 394 242 382 188 q 408 361 406 296 q 410 486 410 426 q 408 612 410 547 q 394 731 406 676 q 358 819 382 785 q 292 854 335 854 q 225 819 249 854 q 190 731 201 785 q 176 612 178 676 q 174 486 174 547 m 372 1086 l 247 1086 l 136 1250 l 303 1250 l 372 1086 z "},"ó":{"ha":583,"x_min":28,"x_max":556,"o":"m 292 986 q 441 946 388 986 q 519 837 494 906 q 550 677 544 768 q 556 486 556 586 q 550 295 556 386 q 519 135 544 204 q 441 26 494 67 q 292 -14 388 -14 q 142 26 196 -14 q 64 137 89 67 q 33 299 39 207 q 28 496 28 392 q 33 682 28 593 q 63 838 38 771 q 142 946 89 906 q 292 986 196 986 m 174 486 q 176 361 174 426 q 190 242 178 296 q 225 153 201 188 q 292 118 249 118 q 358 153 335 118 q 394 242 382 188 q 408 361 406 296 q 410 486 410 426 q 408 612 410 547 q 394 731 406 676 q 358 819 382 785 q 292 854 335 854 q 225 819 249 854 q 190 731 201 785 q 176 612 178 676 q 174 486 174 547 m 483 1278 l 372 1114 l 247 1114 l 317 1278 l 483 1278 z "},"ô":{"ha":583,"x_min":28,"x_max":556,"o":"m 292 986 q 441 946 388 986 q 519 837 494 906 q 550 677 544 768 q 556 486 556 586 q 550 295 556 386 q 519 135 544 204 q 441 26 494 67 q 292 -14 388 -14 q 142 26 196 -14 q 64 137 89 67 q 33 299 39 207 q 28 496 28 392 q 33 682 28 593 q 63 838 38 771 q 142 946 89 906 q 292 986 196 986 m 174 486 q 176 361 174 426 q 190 242 178 296 q 225 153 201 188 q 292 118 249 118 q 358 153 335 118 q 394 242 382 188 q 408 361 406 296 q 410 486 410 426 q 408 612 410 547 q 394 731 406 676 q 358 819 382 785 q 292 854 335 854 q 225 819 249 854 q 190 731 201 785 q 176 612 178 676 q 174 486 174 547 m 83 1086 l 194 1250 l 319 1250 l 250 1086 l 83 1086 m 264 1250 l 389 1250 l 500 1086 l 333 1086 l 264 1250 z "},"†":{"ha":208,"x_min":-74,"x_max":281,"o":"m 21 1000 l 153 1000 l 153 622 l 281 622 l 281 490 l 153 490 l 153 -28 l 21 -28 l 21 490 l -74 490 l -74 622 l 21 622 l 21 1000 z "},"‡":{"ha":146,"x_min":-111,"x_max":254,"o":"m -11 1000 l 121 1000 l 121 729 l 254 729 l 254 563 l 121 563 l 121 410 l 254 410 l 254 243 l 121 243 l 121 -28 l -11 -28 l -11 243 l -111 243 l -111 410 l -11 410 l -11 563 l -111 563 l -111 729 l -11 729 l -11 1000 z "},"õ":{"ha":583,"x_min":28,"x_max":556,"o":"m 292 986 q 441 946 388 986 q 519 837 494 906 q 550 677 544 768 q 556 486 556 586 q 550 295 556 386 q 519 135 544 204 q 441 26 494 67 q 292 -14 388 -14 q 142 26 196 -14 q 64 137 89 67 q 33 299 39 207 q 28 496 28 392 q 33 682 28 593 q 63 838 38 771 q 142 946 89 906 q 292 986 196 986 m 174 486 q 176 361 174 426 q 190 242 178 296 q 225 153 201 188 q 292 118 249 118 q 358 153 335 118 q 394 242 382 188 q 408 361 406 296 q 410 486 410 426 q 408 612 410 547 q 394 731 406 676 q 358 819 382 785 q 292 854 335 854 q 225 819 249 854 q 190 731 201 785 q 176 612 178 676 q 174 486 174 547 m 293 1219 q 331 1209 311 1214 q 371 1204 351 1204 q 403 1209 388 1204 q 431 1226 418 1214 l 431 1101 q 403 1084 418 1089 q 371 1079 388 1079 q 331 1084 351 1079 q 293 1094 311 1089 q 256 1105 275 1100 q 217 1110 236 1110 q 154 1086 178 1110 l 154 1213 q 182 1230 167 1225 q 214 1235 197 1235 q 253 1230 233 1235 q 293 1219 274 1225 z "},"ö":{"ha":583,"x_min":28,"x_max":556,"o":"m 292 986 q 441 946 388 986 q 519 837 494 906 q 550 677 544 768 q 556 486 556 586 q 550 295 556 386 q 519 135 544 204 q 441 26 494 67 q 292 -14 388 -14 q 142 26 196 -14 q 64 137 89 67 q 33 299 39 207 q 28 496 28 392 q 33 682 28 593 q 63 838 38 771 q 142 946 89 906 q 292 986 196 986 m 174 486 q 176 361 174 426 q 190 242 178 296 q 225 153 201 188 q 292 118 249 118 q 358 153 335 118 q 394 242 382 188 q 408 361 406 296 q 410 486 410 426 q 408 612 410 547 q 394 731 406 676 q 358 819 382 785 q 292 854 335 854 q 225 819 249 854 q 190 731 201 785 q 176 612 178 676 q 174 486 174 547 m 174 1250 q 238 1226 221 1250 q 256 1168 256 1203 q 238 1110 256 1133 q 174 1086 221 1086 q 109 1110 126 1086 q 92 1168 92 1133 q 109 1226 92 1203 q 174 1250 126 1250 m 410 1250 q 474 1226 457 1250 q 492 1168 492 1203 q 474 1110 492 1133 q 410 1086 457 1086 q 345 1110 363 1086 q 328 1168 328 1133 q 345 1226 328 1203 q 410 1250 363 1250 z "},"ø":{"ha":646,"x_min":28,"x_max":556,"o":"m 292 986 q 441 946 388 986 q 519 837 494 906 q 550 677 544 768 q 556 486 556 586 q 550 295 556 386 q 519 135 544 204 q 441 26 494 67 q 292 -14 388 -14 q 142 26 196 -14 q 64 137 89 67 q 33 299 39 207 q 28 496 28 392 q 33 682 28 593 q 63 838 38 771 q 142 946 89 906 q 292 986 196 986 m 174 486 q 176 361 174 426 q 190 242 178 296 q 225 153 201 188 q 292 118 249 118 q 358 153 335 118 q 394 242 382 188 q 408 361 406 296 q 410 486 410 426 q 408 612 410 547 q 394 731 406 676 q 358 819 382 785 q 292 854 335 854 q 225 819 249 854 q 190 731 201 785 q 176 612 178 676 q 174 486 174 547 m 379 1000 l 518 1000 l 268 -28 l 129 -28 l 379 1000 z "},"š":{"ha":571,"x_min":28,"x_max":550,"o":"m 174 721 q 190 649 174 679 q 236 590 206 618 q 310 533 267 563 q 410 464 354 504 q 469 419 443 440 q 513 372 494 397 q 540 315 531 347 q 550 240 550 283 q 480 53 550 119 q 292 -14 410 -14 q 94 76 158 -14 q 29 353 29 165 l 175 353 q 183 265 175 307 q 208 190 192 222 q 248 137 224 157 q 306 115 272 117 q 374 138 344 113 q 404 210 404 163 q 393 258 404 238 q 363 297 382 278 q 320 333 344 315 q 268 371 296 350 q 158 459 204 419 q 83 540 113 499 q 41 632 54 582 q 28 751 28 682 q 92 923 28 860 q 276 986 157 986 q 474 897 411 986 q 536 611 536 807 l 536 569 l 390 569 l 390 600 l 390 629 q 363 797 390 739 q 279 854 335 854 q 203 817 233 854 q 174 721 174 781 m 317 1086 l 192 1086 l 81 1250 l 247 1250 l 317 1086 m 497 1250 l 386 1086 l 261 1086 l 331 1250 l 497 1250 z "},"ù":{"ha":625,"x_min":49,"x_max":576,"o":"m 431 972 l 576 972 l 576 486 q 571 295 576 386 q 540 135 565 204 q 462 26 515 67 q 313 -14 408 -14 q 163 26 217 -14 q 85 135 110 67 q 54 295 60 204 q 49 486 49 386 l 49 972 l 194 972 l 194 486 q 197 361 194 426 q 210 242 199 296 q 246 153 222 188 q 313 118 269 118 q 379 153 356 118 q 415 242 403 188 q 428 361 426 296 q 431 486 431 426 l 431 972 m 407 1086 l 282 1086 l 171 1250 l 338 1250 l 407 1086 z "},"ú":{"ha":625,"x_min":49,"x_max":576,"o":"m 431 972 l 576 972 l 576 486 q 571 295 576 386 q 540 135 565 204 q 462 26 515 67 q 313 -14 408 -14 q 163 26 217 -14 q 85 135 110 67 q 54 295 60 204 q 49 486 49 386 l 49 972 l 194 972 l 194 486 q 197 361 194 426 q 210 242 199 296 q 246 153 222 188 q 313 118 269 118 q 379 153 356 118 q 415 242 403 188 q 428 361 426 296 q 431 486 431 426 l 431 972 m 504 1250 l 393 1086 l 268 1086 l 338 1250 l 504 1250 z "},"û":{"ha":625,"x_min":49,"x_max":576,"o":"m 431 972 l 576 972 l 576 486 q 571 295 576 386 q 540 135 565 204 q 462 26 515 67 q 313 -14 408 -14 q 163 26 217 -14 q 85 135 110 67 q 54 295 60 204 q 49 486 49 386 l 49 972 l 194 972 l 194 486 q 197 361 194 426 q 210 242 199 296 q 246 153 222 188 q 313 118 269 118 q 379 153 356 118 q 415 242 403 188 q 428 361 426 296 q 431 486 431 426 l 431 972 m 106 1086 l 217 1250 l 342 1250 l 272 1086 l 106 1086 m 286 1250 l 411 1250 l 522 1086 l 356 1086 l 286 1250 z "},"ü":{"ha":625,"x_min":49,"x_max":576,"o":"m 431 972 l 576 972 l 576 486 q 571 295 576 386 q 540 135 565 204 q 462 26 515 67 q 313 -14 408 -14 q 163 26 217 -14 q 85 135 110 67 q 54 295 60 204 q 49 486 49 386 l 49 972 l 194 972 l 194 486 q 197 361 194 426 q 210 242 199 296 q 246 153 222 188 q 313 118 269 118 q 379 153 356 118 q 415 242 403 188 q 428 361 426 296 q 431 486 431 426 l 431 972 m 194 1250 q 259 1226 242 1250 q 276 1168 276 1203 q 259 1110 276 1133 q 194 1086 242 1086 q 130 1110 147 1086 q 113 1168 113 1133 q 130 1226 113 1203 q 194 1250 147 1250 m 431 1250 q 495 1226 478 1250 q 513 1168 513 1203 q 495 1110 513 1133 q 431 1086 478 1086 q 366 1110 383 1086 q 349 1168 349 1133 q 366 1226 349 1203 q 431 1250 383 1250 z "},"ý":{"ha":625,"x_min":49,"x_max":576,"o":"m 431 972 l 576 972 l 576 778 q 569 611 576 690 q 542 469 563 532 q 485 364 522 407 q 386 304 447 321 l 386 304 l 386 0 l 240 0 l 240 304 l 240 304 q 142 364 179 321 q 83 469 104 407 q 56 611 63 532 q 49 778 49 690 l 49 972 l 194 972 l 194 778 q 197 655 194 718 q 210 541 199 592 q 246 458 222 490 q 313 425 269 425 q 379 458 356 425 q 415 541 403 490 q 428 655 426 592 q 431 778 431 718 l 431 972 m 504 1250 l 393 1086 l 268 1086 l 338 1250 l 504 1250 z "},"ÿ":{"ha":625,"x_min":49,"x_max":576,"o":"m 431 972 l 576 972 l 576 778 q 569 611 576 690 q 542 469 563 532 q 485 364 522 407 q 386 304 447 321 l 386 304 l 386 0 l 240 0 l 240 304 l 240 304 q 142 364 179 321 q 83 469 104 407 q 56 611 63 532 q 49 778 49 690 l 49 972 l 194 972 l 194 778 q 197 655 194 718 q 210 541 199 592 q 246 458 222 490 q 313 425 269 425 q 379 458 356 425 q 415 541 403 490 q 428 655 426 592 q 431 778 431 718 l 431 972 m 226 1250 q 291 1226 274 1250 q 308 1168 308 1203 q 291 1110 308 1133 q 226 1086 274 1086 q 162 1110 179 1086 q 144 1168 144 1133 q 162 1226 144 1203 q 226 1250 179 1250 m 463 1250 q 527 1226 510 1250 q 544 1168 544 1203 q 527 1110 544 1133 q 463 1086 510 1086 q 398 1110 415 1086 q 381 1168 381 1133 q 398 1226 381 1203 q 463 1250 415 1250 z "},"ž":{"ha":461,"x_min":14,"x_max":469,"o":"m 447 972 l 204 132 l 392 132 l 392 0 l 14 0 l 271 840 l 58 840 l 58 972 l 447 972 m 289 1086 l 164 1086 l 53 1250 l 219 1250 l 289 1086 m 469 1250 l 358 1086 l 233 1086 l 303 1250 l 469 1250 z "},"¼":{"ha":1463,"x_min":49,"x_max":1351,"o":"m 244 967 l 244 0 l 99 0 l 99 806 l 49 804 l 49 936 l 244 967 m 607 1000 l 746 1000 l 496 -28 l 357 -28 l 607 1000 m 1281 972 l 1281 328 l 1351 328 l 1351 196 l 1281 196 l 1281 0 l 1135 0 l 1135 196 l 772 196 l 856 972 l 989 972 l 926 328 l 1135 328 l 1135 972 l 1281 972 z "},"½":{"ha":1394,"x_min":49,"x_max":1304,"o":"m 244 967 l 244 0 l 99 0 l 99 806 l 49 804 l 49 936 l 244 967 m 607 1000 l 746 1000 l 496 -28 l 357 -28 l 607 1000 m 1304 725 q 1278 594 1304 653 q 1215 486 1253 535 q 1132 399 1176 438 q 1049 326 1088 360 q 969 238 997 282 q 942 132 942 194 l 1265 132 l 1265 0 l 796 0 l 796 132 q 812 259 796 207 q 853 348 828 311 q 910 413 878 385 q 976 467 943 440 q 1044 527 1011 494 q 1102 594 1076 560 q 1143 662 1128 628 q 1158 725 1158 696 q 1153 759 1158 738 q 1136 802 1149 781 q 1102 839 1124 824 q 1046 854 1081 854 q 989 830 1010 854 q 957 770 968 806 q 943 694 946 735 q 940 619 940 653 l 940 588 q 941 572 940 579 q 942 556 942 564 l 794 556 l 794 576 q 800 719 794 647 q 831 851 806 792 q 907 949 856 911 q 1051 986 958 986 q 1169 964 1121 986 q 1247 906 1217 942 q 1291 822 1278 869 q 1304 725 1304 775 z "},"¾":{"ha":1740,"x_min":28,"x_max":1629,"o":"m 408 483 q 472 459 449 475 q 507 418 496 443 q 521 360 518 393 q 524 286 524 326 q 517 155 524 211 q 486 61 511 99 q 412 5 461 24 q 276 -14 363 -14 q 141 5 190 -14 q 67 62 92 24 q 37 158 43 100 q 31 292 31 215 l 164 292 q 166 238 164 268 q 178 181 168 207 q 212 136 189 154 q 276 118 235 118 q 342 136 319 118 q 376 181 365 154 q 388 238 386 207 q 390 292 390 268 q 387 338 390 315 q 372 378 383 360 q 337 406 360 396 q 276 417 314 417 l 203 417 l 203 542 l 272 542 q 333 555 310 542 q 368 588 356 568 q 384 633 381 608 q 388 681 388 657 q 386 735 388 704 q 374 792 385 765 q 340 836 364 818 q 272 854 317 854 q 208 836 231 854 q 174 792 185 818 q 162 735 164 765 q 160 681 160 704 l 28 681 q 36 806 28 750 q 70 903 44 863 q 144 965 96 943 q 272 986 193 986 q 386 974 339 986 q 463 933 433 963 q 507 854 493 904 q 521 729 521 804 q 519 641 521 682 q 506 568 517 600 q 473 514 496 536 q 407 483 450 492 l 408 483 m 885 1000 l 1024 1000 l 774 -28 l 635 -28 l 885 1000 m 1558 972 l 1558 328 l 1629 328 l 1629 196 l 1558 196 l 1558 0 l 1413 0 l 1413 196 l 1050 196 l 1133 972 l 1267 972 l 1204 328 l 1413 328 l 1413 972 l 1558 972 z "},"‰":{"ha":1518,"x_min":49,"x_max":1469,"o":"m 450 729 q 446 635 450 679 q 423 557 442 590 q 364 505 404 524 q 250 486 324 486 q 136 505 176 486 q 76 557 96 524 q 53 635 57 590 q 49 729 49 679 q 53 824 49 779 q 76 901 57 868 q 136 953 96 935 q 250 972 176 972 q 364 953 324 972 q 423 901 404 935 q 446 824 442 868 q 450 729 450 779 m 411 0 l 244 0 l 635 972 l 801 972 l 411 0 m 283 729 q 283 786 283 760 q 279 833 282 813 q 269 864 276 853 q 250 875 263 875 q 231 864 238 875 q 220 833 224 853 q 216 786 217 813 q 215 729 215 760 q 216 672 215 699 q 220 626 217 646 q 231 595 224 607 q 250 583 238 583 q 269 595 263 583 q 279 626 276 607 q 283 672 282 646 q 283 729 283 699 m 797 486 q 911 467 871 486 q 970 415 951 449 q 993 338 989 382 q 997 243 997 293 q 993 149 997 193 q 970 71 989 104 q 911 19 951 38 q 797 0 871 0 q 683 19 724 0 q 624 71 643 38 q 600 149 604 104 q 596 243 596 193 q 600 338 596 293 q 624 415 604 382 q 683 467 643 449 q 797 486 724 486 m 797 389 q 778 378 785 389 q 767 347 771 367 q 763 300 764 326 q 763 243 763 274 q 763 186 763 213 q 767 140 764 160 q 778 109 771 121 q 797 97 785 97 q 817 109 810 97 q 826 140 824 121 q 830 186 829 160 q 831 243 831 213 q 830 300 831 274 q 826 347 829 326 q 817 378 824 367 q 797 389 810 389 m 1269 486 q 1383 467 1343 486 q 1442 415 1424 449 q 1465 338 1461 382 q 1469 243 1469 293 q 1465 149 1469 193 q 1442 71 1461 104 q 1383 19 1424 38 q 1269 0 1343 0 q 1156 19 1196 0 q 1096 71 1115 38 q 1072 149 1076 104 q 1068 243 1068 193 q 1072 338 1068 293 q 1096 415 1076 382 q 1156 467 1115 449 q 1269 486 1196 486 m 1269 389 q 1250 378 1257 389 q 1240 347 1243 367 q 1235 300 1236 326 q 1235 243 1235 274 q 1235 186 1235 213 q 1240 140 1236 160 q 1250 109 1243 121 q 1269 97 1257 97 q 1289 109 1282 97 q 1299 140 1296 121 q 1302 186 1301 160 q 1303 243 1303 213 q 1302 300 1303 274 q 1299 347 1301 326 q 1289 378 1296 367 q 1269 389 1282 389 z "},"˚":{"ha":278,"x_min":0,"x_max":278,"o":"m 139 972 q 206 961 179 972 q 248 931 232 950 q 271 887 264 913 q 278 833 278 861 q 248 735 278 775 q 139 694 218 694 q 30 735 60 694 q 0 833 0 775 q 7 887 0 861 q 30 931 14 913 q 73 961 46 950 q 139 972 100 972 m 81 833 q 93 792 81 808 q 139 775 106 775 q 186 792 174 775 q 199 833 199 808 q 186 876 199 858 q 139 893 174 893 q 93 876 106 893 q 81 833 81 858 z "},"å":{"ha":613,"x_min":0,"x_max":613,"o":"m 419 972 l 613 0 l 465 0 l 432 181 l 182 181 l 147 0 l 0 0 l 193 972 l 419 972 m 210 318 l 401 318 l 306 800 l 210 318 m 307 1250 q 374 1239 347 1250 q 416 1209 400 1228 q 439 1165 432 1190 q 446 1111 446 1139 q 416 1013 446 1053 q 307 972 386 972 q 198 1013 228 972 q 168 1111 168 1053 q 175 1165 168 1139 q 198 1209 182 1190 q 241 1239 214 1228 q 307 1250 268 1250 m 249 1111 q 261 1069 249 1086 q 307 1053 274 1053 q 354 1069 342 1053 q 367 1111 367 1086 q 354 1153 367 1136 q 307 1171 342 1171 q 261 1153 274 1171 q 249 1111 249 1136 z "},"Å":{"ha":613,"x_min":0,"x_max":613,"o":"m 419 972 l 613 0 l 465 0 l 432 181 l 182 181 l 147 0 l 0 0 l 193 972 l 419 972 m 210 318 l 401 318 l 306 800 l 210 318 m 307 1250 q 374 1239 347 1250 q 416 1209 400 1228 q 439 1165 432 1190 q 446 1111 446 1139 q 416 1013 446 1053 q 307 972 386 972 q 198 1013 228 972 q 168 1111 168 1053 q 175 1165 168 1139 q 198 1209 182 1190 q 241 1239 214 1228 q 307 1250 268 1250 m 249 1111 q 261 1069 249 1086 q 307 1053 274 1053 q 354 1069 342 1053 q 367 1111 367 1086 q 354 1153 367 1136 q 307 1171 342 1171 q 261 1153 274 1171 q 249 1111 249 1136 z "},"Æ":{"ha":753,"x_min":-1,"x_max":724,"o":"m 724 972 l 724 840 l 539 840 l 539 536 l 696 536 l 696 403 l 539 403 l 539 132 l 724 132 l 724 0 l 393 0 l 393 176 l 188 176 l 146 0 l -1 0 l 192 972 l 724 972 m 208 318 l 393 318 l 393 840 l 300 840 l 208 318 z "},"æ":{"ha":760,"x_min":0,"x_max":731,"o":"m 731 972 l 731 840 l 546 840 l 546 556 l 703 556 l 703 424 l 546 424 l 546 132 l 731 132 l 731 0 l 393 0 l 393 190 l 193 190 l 153 0 l 0 0 l 193 972 l 731 972 m 215 318 l 393 318 l 393 840 l 307 840 l 215 318 z "},"Œ":{"ha":742,"x_min":28,"x_max":713,"o":"m 382 131 l 382 839 l 292 839 q 225 806 249 839 q 190 722 201 774 q 176 608 178 671 q 174 485 174 546 q 176 362 174 425 q 190 247 178 299 q 225 163 201 196 q 292 131 249 131 l 382 131 m 713 839 l 528 839 l 528 547 l 685 547 l 685 415 l 528 415 l 528 131 l 713 131 l 713 -1 l 286 -1 q 141 38 193 0 q 64 142 89 76 q 33 297 39 208 q 28 485 28 385 q 33 673 28 585 q 63 827 38 761 q 140 931 88 893 q 286 971 192 969 l 713 971 l 713 839 z "},"œ":{"ha":747,"x_min":28,"x_max":719,"o":"m 382 131 l 382 839 l 296 839 q 231 806 254 839 q 197 722 208 774 q 183 608 185 671 q 181 485 181 546 q 183 362 181 425 q 197 247 185 299 q 231 163 208 196 q 296 131 254 131 l 382 131 m 719 839 l 535 839 l 535 582 l 692 582 l 692 450 l 535 450 l 535 131 l 719 131 l 719 -1 l 290 -1 q 142 38 194 0 q 63 142 89 76 q 33 297 38 208 q 28 485 28 385 q 33 673 28 585 q 63 827 38 761 q 142 931 89 893 q 290 971 194 969 l 719 971 l 719 839 z "},"đ":{"ha":647,"x_min":49,"x_max":675,"o":"m 293 972 q 445 934 392 972 q 524 830 499 896 q 553 675 549 764 q 557 486 557 586 q 553 297 557 386 q 524 142 549 208 q 445 38 499 76 q 293 0 392 0 l 49 0 l 49 972 l 293 972 m 293 132 q 354 165 333 132 q 385 249 375 197 q 397 363 396 300 q 399 486 399 426 q 397 610 399 547 q 385 724 396 672 q 354 808 375 775 q 293 840 333 840 l 194 840 l 194 132 l 293 132 m 675 456 l 328 456 l 328 594 l 675 594 l 675 456 z "},"°":{"ha":278,"x_min":0,"x_max":278,"o":"m 139 972 q 206 961 179 972 q 248 931 232 950 q 271 887 264 913 q 278 833 278 861 q 248 735 278 775 q 139 694 218 694 q 30 735 60 694 q 0 833 0 775 q 7 887 0 861 q 30 931 14 913 q 73 961 46 950 q 139 972 100 972 m 81 833 q 93 792 81 808 q 139 775 106 775 q 186 792 174 775 q 199 833 199 808 q 186 876 199 858 q 139 893 174 893 q 93 876 106 893 q 81 833 81 858 z "},"ª":{"ha":193,"x_min":0,"x_max":193,"o":"m 138 972 l 193 694 l 133 694 l 126 729 l 67 729 l 60 694 l 0 694 l 56 972 l 138 972 m 78 785 l 115 785 l 96 899 l 78 785 z "},"¹":{"ha":289,"x_min":42,"x_max":240,"o":"m 240 486 l 81 486 l 81 858 l 42 854 l 42 951 l 240 972 l 240 486 z "},"²":{"ha":524,"x_min":43,"x_max":482,"o":"m 482 833 q 463 774 482 801 q 417 726 444 747 q 356 686 389 704 q 296 652 324 668 q 249 623 268 636 q 231 597 231 610 l 451 597 l 451 486 l 43 486 l 43 597 q 64 647 43 625 q 115 687 85 668 q 183 722 146 706 q 250 755 219 738 q 301 791 281 772 q 322 833 322 810 q 306 864 322 853 q 260 875 290 875 q 224 865 236 875 q 208 840 213 856 q 203 805 203 825 q 203 764 203 785 l 43 764 q 45 831 43 794 q 66 898 47 867 q 130 951 85 929 q 260 972 175 972 q 363 962 321 972 q 432 933 406 951 q 470 890 458 915 q 482 833 482 864 z "},"º":{"ha":454,"x_min":0,"x_max":451,"o":"m 226 972 q 353 953 308 972 q 421 901 399 935 q 447 824 443 868 q 451 729 451 779 q 447 635 451 679 q 421 557 443 590 q 353 505 399 524 q 226 486 308 486 q 99 505 144 486 q 31 557 53 524 q 5 635 10 590 q 0 729 0 679 q 4 824 0 779 q 31 901 8 868 q 98 953 53 935 q 226 972 143 972 m 160 729 q 161 672 160 699 q 169 626 163 646 q 188 595 175 607 q 226 583 201 583 q 264 595 250 583 q 284 626 278 607 q 292 672 290 646 q 293 729 293 699 q 292 786 293 760 q 284 833 290 813 q 264 864 278 853 q 226 875 250 875 q 188 864 201 875 q 169 833 175 853 q 161 786 163 813 q 160 729 160 760 z "},"³":{"ha":522,"x_min":42,"x_max":481,"o":"m 360 735 q 428 718 404 729 q 464 690 453 707 q 478 653 475 674 q 481 608 481 633 q 476 561 481 583 q 451 522 472 539 q 386 496 431 506 q 263 486 342 486 q 140 496 183 486 q 74 522 96 506 q 49 561 53 539 q 44 608 44 583 l 44 632 l 199 632 q 200 613 199 622 q 208 598 201 604 q 226 588 214 592 q 263 583 239 583 q 299 588 286 583 q 317 598 311 592 q 325 613 324 604 q 326 632 326 622 q 325 651 326 642 q 317 666 324 660 q 299 676 311 672 q 263 681 286 681 l 263 681 l 179 681 l 179 778 l 260 778 l 260 778 q 296 782 283 778 q 315 792 308 786 q 322 808 321 799 q 324 826 324 817 q 322 845 324 836 q 315 860 321 854 q 296 871 308 867 q 260 875 283 875 q 223 871 236 875 q 203 860 210 867 q 196 845 197 854 q 194 826 194 836 l 42 826 q 44 867 42 842 q 65 915 46 892 q 130 956 85 939 q 260 972 175 972 q 383 963 339 972 q 448 937 426 953 q 474 899 469 921 q 478 851 478 876 q 476 812 478 831 q 462 778 474 793 q 426 751 450 763 q 360 735 403 740 z "},"Þ":{"ha":578,"x_min":50,"x_max":531,"o":"m 50 0 l 50 972 l 196 972 l 196 747 q 242 785 214 768 q 302 811 265 800 q 388 822 339 822 q 467 796 439 822 q 510 724 496 769 q 527 617 524 678 q 531 486 531 556 q 527 356 531 417 q 510 249 524 294 q 467 176 496 203 q 389 150 439 150 q 313 162 349 150 q 251 188 278 174 q 196 225 221 204 l 196 0 l 50 0 m 290 285 q 343 301 324 285 q 372 344 363 317 q 383 408 381 371 q 385 486 385 444 q 383 565 385 528 q 372 628 381 601 q 343 672 363 656 q 290 688 324 688 q 238 672 257 688 q 210 628 219 656 q 199 565 201 601 q 197 486 197 528 q 199 408 197 444 q 210 344 201 371 q 238 301 219 317 q 290 285 257 285 z "},"¸":{"ha":242,"x_min":0,"x_max":242,"o":"m 158 -17 q 224 -56 206 -26 q 242 -126 242 -86 q 235 -170 242 -150 q 215 -206 229 -190 q 178 -230 201 -221 q 121 -239 156 -239 q 26 -206 53 -239 q 0 -126 0 -172 l 85 -126 q 92 -159 85 -146 q 121 -172 100 -172 q 149 -159 142 -172 q 157 -126 157 -146 q 149 -94 157 -107 q 121 -81 142 -81 l 49 -81 l 82 44 l 194 44 l 158 -17 z "},"Ç":{"ha":589,"x_min":28,"x_max":554,"o":"m 554 358 q 543 214 554 282 q 503 95 532 146 q 423 15 474 44 q 292 -14 372 -14 q 142 26 196 -14 q 64 135 89 67 q 33 295 39 204 q 28 486 28 386 q 33 677 28 586 q 63 837 38 768 q 142 946 89 906 q 292 986 196 986 q 423 957 372 986 q 503 878 474 928 q 543 760 532 828 q 554 614 554 692 l 408 614 q 401 693 408 651 q 381 771 394 735 q 344 831 367 807 q 292 854 322 854 q 225 819 249 854 q 190 731 201 785 q 176 612 178 676 q 174 486 174 547 q 176 363 174 426 q 190 249 178 300 q 225 165 201 197 q 292 132 249 132 q 344 153 322 132 q 381 208 367 175 q 401 281 394 240 q 408 358 408 321 l 554 358 m 360 -17 q 425 -56 407 -26 q 443 -126 443 -86 q 437 -170 443 -150 q 417 -206 431 -190 q 380 -230 403 -221 q 322 -239 357 -239 q 228 -206 254 -239 q 201 -126 201 -172 l 286 -126 q 294 -159 286 -146 q 322 -172 301 -172 q 351 -159 343 -172 q 358 -126 358 -146 q 351 -94 358 -107 q 322 -81 343 -81 l 250 -81 l 283 44 l 396 44 l 360 -17 z "},"ç":{"ha":644,"x_min":28,"x_max":554,"o":"m 554 358 q 543 214 554 282 q 503 95 532 146 q 423 15 474 44 q 292 -14 372 -14 q 142 26 196 -14 q 64 135 89 67 q 33 295 39 204 q 28 486 28 386 q 33 677 28 586 q 63 837 38 768 q 142 946 89 906 q 292 986 196 986 q 423 957 372 986 q 503 878 474 928 q 543 760 532 828 q 554 614 554 692 l 408 614 q 401 693 408 651 q 381 771 394 735 q 344 831 367 807 q 292 854 322 854 q 225 819 249 854 q 190 731 201 785 q 176 612 178 676 q 174 486 174 547 q 176 363 174 426 q 190 249 178 300 q 225 165 201 197 q 292 132 249 132 q 344 153 322 132 q 381 208 367 175 q 401 281 394 240 q 408 358 408 321 l 554 358 m 360 -17 q 425 -56 407 -26 q 443 -126 443 -86 q 437 -170 443 -150 q 417 -206 431 -190 q 380 -230 403 -221 q 322 -239 357 -239 q 228 -206 254 -239 q 201 -126 201 -172 l 286 -126 q 294 -159 286 -146 q 322 -172 301 -172 q 351 -159 343 -172 q 358 -126 358 -146 q 351 -94 358 -107 q 322 -81 343 -81 l 250 -81 l 283 44 l 396 44 l 360 -17 z "},"˙":{"ha":164,"x_min":0,"x_max":164,"o":"m 82 972 q 147 949 129 972 q 164 890 164 925 q 147 832 164 856 q 82 808 129 808 q 17 832 35 808 q 0 890 0 856 q 17 949 0 925 q 82 972 35 972 z "},"¶":{"ha":754,"x_min":28,"x_max":706,"o":"m 704 972 l 706 -28 l 567 -28 l 565 918 l 479 918 l 479 -28 l 340 -28 l 340 347 q 192 372 251 347 q 95 439 132 396 q 43 539 58 482 q 28 660 28 596 q 43 781 28 725 q 95 881 58 838 q 192 948 132 924 q 340 972 251 972 l 704 972 z "},"⁄":{"ha":389,"x_min":0,"x_max":389,"o":"m 250 1000 l 389 1000 l 139 -28 l 0 -28 l 250 1000 z "},"þ":{"ha":564,"x_min":49,"x_max":529,"o":"m 49 0 l 49 972 l 194 972 l 194 747 q 240 785 213 768 q 301 811 264 800 q 386 822 338 822 q 466 796 438 822 q 508 724 494 769 q 526 617 522 678 q 529 486 529 556 q 526 356 529 417 q 508 249 522 294 q 466 176 494 203 q 388 150 438 150 q 312 162 347 150 q 250 188 276 174 q 194 225 219 204 l 194 0 l 49 0 m 289 285 q 342 301 322 285 q 370 344 361 317 q 381 408 379 371 q 383 486 383 444 q 381 565 383 528 q 370 628 379 601 q 342 672 361 656 q 289 688 322 688 q 237 672 256 688 q 209 628 218 656 q 198 565 200 601 q 196 486 196 528 q 198 408 196 444 q 209 344 200 371 q 237 301 218 317 q 289 285 256 285 z "}}}
